<svg xmlns="http://www.w3.org/2000/svg" width="1600" height="900" viewBox="0 0 1600 900">
<rect width="1600" height="900" fill="#020604"/>
<defs><marker id="arrow-mint" viewBox="0 0 10 10" markerWidth="10" markerHeight="10" refX="9" refY="5" orient="auto" markerUnits="userSpaceOnUse"><path d="M0 0 L10 5 L0 10 Z" fill="#7fee64"/></marker><marker id="arrow-cyan" viewBox="0 0 10 10" markerWidth="10" markerHeight="10" refX="9" refY="5" orient="auto" markerUnits="userSpaceOnUse"><path d="M0 0 L10 5 L0 10 Z" fill="#22c7ff"/></marker><marker id="arrow-amber" viewBox="0 0 10 10" markerWidth="10" markerHeight="10" refX="9" refY="5" orient="auto" markerUnits="userSpaceOnUse"><path d="M0 0 L10 5 L0 10 Z" fill="#ffd75e"/></marker><marker id="arrow-purple" viewBox="0 0 10 10" markerWidth="10" markerHeight="10" refX="9" refY="5" orient="auto" markerUnits="userSpaceOnUse"><path d="M0 0 L10 5 L0 10 Z" fill="#b17aff"/></marker><marker id="arrow-red" viewBox="0 0 10 10" markerWidth="10" markerHeight="10" refX="9" refY="5" orient="auto" markerUnits="userSpaceOnUse"><path d="M0 0 L10 5 L0 10 Z" fill="#ff5c66"/></marker></defs>
<rect x="28" y="26" width="1544" height="848" rx="26" fill="#020604" stroke="#1f5f32" stroke-width="2"/>
<text x="60" y="74" font-family="IBM Plex Mono, ui-monospace, monospace" font-size="34" font-weight="800" fill="#ddffdc">15 / Atomic Handoff To Uniswap</text>
<line x1="60" y1="106" x2="1540" y2="106" stroke="#21482a" stroke-width="2"/>
<rect x="70" y="145" width="1460" height="126" rx="16" fill="#020604" stroke="#7fee64" stroke-width="2.5"/>
<text x="94" y="180" text-anchor="start" font-family="IBM Plex Mono, ui-monospace, monospace" font-size="22" font-weight="650" fill="#7fee64">PFTL side</text>
<rect x="70" y="345" width="1460" height="126" rx="16" fill="#020604" stroke="#22c7ff" stroke-width="2.5"/>
<text x="94" y="380" text-anchor="start" font-family="IBM Plex Mono, ui-monospace, monospace" font-size="22" font-weight="650" fill="#22c7ff">Ethereum side</text>
<rect x="70" y="545" width="1460" height="126" rx="16" fill="#020604" stroke="#ffd75e" stroke-width="2.5"/>
<text x="94" y="580" text-anchor="start" font-family="IBM Plex Mono, ui-monospace, monospace" font-size="22" font-weight="650" fill="#ffd75e">timeout / safety</text>
<rect x="105" y="205" width="250" height="82" rx="14" fill="#120b1d" stroke="#b17aff" stroke-width="2.5" stroke-dasharray="9 8"/>
<text x="230.0" y="243.0" text-anchor="middle" font-family="Inter Tight, Arial, sans-serif" font-size="27" font-weight="800" fill="#ddffdc">public a651</text>
<text x="230.0" y="275.0" text-anchor="middle" font-family="Inter Tight, Arial, sans-serif" font-size="18" font-weight="650" fill="#8aa286">from private egress</text>
<line x1="355" y1="246" x2="470" y2="246" stroke="#ffd75e" stroke-width="3" marker-end="url(#arrow-amber)"/>
<rect x="470" y="205" width="260" height="82" rx="14" fill="#151006" stroke="#ffd75e" stroke-width="2.5"/>
<text x="600.0" y="243.0" text-anchor="middle" font-family="Inter Tight, Arial, sans-serif" font-size="24" font-weight="800" fill="#ddffdc">hashlock escrow</text>
<text x="600.0" y="275.0" text-anchor="middle" font-family="Inter Tight, Arial, sans-serif" font-size="18" font-weight="650" fill="#8aa286">asset + amount + swap id</text>
<line x1="730" y1="246" x2="845" y2="246" stroke="#7fee64" stroke-width="3" marker-end="url(#arrow-mint)"/>
<rect x="845" y="205" width="250" height="82" rx="14" fill="#07140a" stroke="#7fee64" stroke-width="2.5"/>
<text x="970.0" y="243.0" text-anchor="middle" font-family="Inter Tight, Arial, sans-serif" font-size="27" font-weight="800" fill="#ddffdc">PFTL receipt</text>
<text x="970.0" y="275.0" text-anchor="middle" font-family="Inter Tight, Arial, sans-serif" font-size="18" font-weight="650" fill="#8aa286">finalized lock</text>
<path d="M970 287 C980 330 945 355 905 385" fill="none" stroke="#22c7ff" stroke-width="3" marker-end="url(#arrow-cyan)"/>
<rect x="880" y="405" width="250" height="82" rx="14" fill="#061018" stroke="#22c7ff" stroke-width="2.5"/>
<text x="1005.0" y="443.0" text-anchor="middle" font-family="Inter Tight, Arial, sans-serif" font-size="24" font-weight="800" fill="#ddffdc">verify receipt</text>
<text x="1005.0" y="475.0" text-anchor="middle" font-family="Inter Tight, Arial, sans-serif" font-size="18" font-weight="650" fill="#8aa286">same swap id</text>
<line x1="1130" y1="446" x2="1245" y2="446" stroke="#22c7ff" stroke-width="3" marker-end="url(#arrow-cyan)"/>
<rect x="1245" y="405" width="240" height="82" rx="14" fill="#061018" stroke="#22c7ff" stroke-width="2.5"/>
<text x="1365.0" y="443.0" text-anchor="middle" font-family="Inter Tight, Arial, sans-serif" font-size="27" font-weight="800" fill="#ddffdc">release wA651</text>
<text x="1365.0" y="475.0" text-anchor="middle" font-family="Inter Tight, Arial, sans-serif" font-size="18" font-weight="650" fill="#8aa286">or route pool</text>
<rect x="160" y="400" width="260" height="82" rx="14" fill="#151006" stroke="#ffd75e" stroke-width="2.5"/>
<text x="290.0" y="438.0" text-anchor="middle" font-family="Inter Tight, Arial, sans-serif" font-size="27" font-weight="800" fill="#ddffdc">secret reveal</text>
<text x="290.0" y="470.0" text-anchor="middle" font-family="Inter Tight, Arial, sans-serif" font-size="18" font-weight="650" fill="#8aa286">claims one side</text>
<path d="M420 441 C560 420 710 410 880 446" fill="none" stroke="#ffd75e" stroke-width="3" marker-end="url(#arrow-amber)"/>
<rect x="515" y="600" width="250" height="82" rx="14" fill="#07140a" stroke="#7fee64" stroke-width="2.5"/>
<text x="640.0" y="638.0" text-anchor="middle" font-family="Inter Tight, Arial, sans-serif" font-size="27" font-weight="800" fill="#ddffdc">both settle</text>
<text x="640.0" y="670.0" text-anchor="middle" font-family="Inter Tight, Arial, sans-serif" font-size="18" font-weight="650" fill="#8aa286">secret observed</text>
<rect x="835" y="600" width="250" height="82" rx="14" fill="#151006" stroke="#ffd75e" stroke-width="2.5"/>
<text x="960.0" y="638.0" text-anchor="middle" font-family="Inter Tight, Arial, sans-serif" font-size="27" font-weight="800" fill="#ddffdc">or refund</text>
<text x="960.0" y="670.0" text-anchor="middle" font-family="Inter Tight, Arial, sans-serif" font-size="18" font-weight="650" fill="#8aa286">timeout expires</text>
<line x1="640" y1="487" x2="640" y2="600" stroke="#7fee64" stroke-width="3" marker-end="url(#arrow-mint)"/>
<line x1="1005" y1="487" x2="960" y2="600" stroke="#ffd75e" stroke-width="3" marker-end="url(#arrow-amber)"/>
<text x="800" y="780" text-anchor="middle" font-family="Inter Tight, Arial, sans-serif" font-size="30" font-weight="800" fill="#ddffdc">Atomic means no inventory IOU: matching lock + receipt + secret, or timeout refund.</text>
</svg>