<svg xmlns="http://www.w3.org/2000/svg" width="1600" height="900" viewBox="0 0 1600 900" role="img" aria-label="14 / Complete Canonical Transaction">
<defs>
  <marker id="arrow-mint" markerWidth="12" markerHeight="12" refX="10" refY="6" orient="auto"><path d="M2 2 L10 6 L2 10 Z" fill="#7fee64"/></marker>
  <marker id="arrow-cyan" markerWidth="12" markerHeight="12" refX="10" refY="6" orient="auto"><path d="M2 2 L10 6 L2 10 Z" fill="#4fc3ff"/></marker>
  <marker id="arrow-amber" markerWidth="12" markerHeight="12" refX="10" refY="6" orient="auto"><path d="M2 2 L10 6 L2 10 Z" fill="#ffd166"/></marker>
  <marker id="arrow-red" markerWidth="12" markerHeight="12" refX="10" refY="6" orient="auto"><path d="M2 2 L10 6 L2 10 Z" fill="#ff6868"/></marker>
  <marker id="arrow-gray" markerWidth="12" markerHeight="12" refX="10" refY="6" orient="auto"><path d="M2 2 L10 6 L2 10 Z" fill="#6f7b70"/></marker>
  <filter id="glow"><feGaussianBlur stdDeviation="3" result="b"/><feMerge><feMergeNode in="b"/><feMergeNode in="SourceGraphic"/></feMerge></filter>
  <pattern id="grid" width="40" height="40" patternUnits="userSpaceOnUse"><path d="M40 0H0V40" fill="none" stroke="#0d1c11" stroke-width="1" opacity="0.45"/></pattern>
</defs>
<rect width="1600" height="900" fill="#030604"/>
<rect width="1600" height="900" fill="url(#grid)" opacity="0.55"/>
<rect x="28" y="26" width="1544" height="848" rx="24" fill="none" stroke="#23402a" stroke-width="2"/>
<text x="60" y="62" fill="#ddffdc" font-family="Inter, Arial, sans-serif" font-size="28" font-weight="700" text-anchor="start" opacity="1">14 / Complete Canonical Transaction</text><line x1="60" y1="86" x2="1540" y2="86" stroke="#23402a" stroke-width="2" opacity="1"/><rect x="70" y="120" width="1460" height="118" rx="16" fill="#050805" stroke="#7fee64" stroke-width="2" opacity="0.92"/><text x="88" y="148" fill="#7fee64" font-family="IBM Plex Mono, ui-monospace, SFMono-Regular, Menlo, monospace" font-size="16" font-weight="700" text-anchor="start" opacity="1">Reserve proof</text><rect x="70" y="270" width="1460" height="118" rx="16" fill="#050805" stroke="#7fee64" stroke-width="2" opacity="0.92"/><text x="88" y="298" fill="#7fee64" font-family="IBM Plex Mono, ui-monospace, SFMono-Regular, Menlo, monospace" font-size="16" font-weight="700" text-anchor="start" opacity="1">PFTL canonical ledger</text><rect x="70" y="420" width="1460" height="118" rx="16" fill="#050805" stroke="#4fc3ff" stroke-width="2" opacity="0.92"/><text x="88" y="448" fill="#4fc3ff" font-family="IBM Plex Mono, ui-monospace, SFMono-Regular, Menlo, monospace" font-size="16" font-weight="700" text-anchor="start" opacity="1">Ethereum venue</text><rect x="70" y="570" width="1460" height="118" rx="16" fill="#050805" stroke="#b18cff" stroke-width="2" stroke-dasharray="12 9" opacity="0.92"/><text x="88" y="598" fill="#b18cff" font-family="IBM Plex Mono, ui-monospace, SFMono-Regular, Menlo, monospace" font-size="16" font-weight="700" text-anchor="start" opacity="1">Orchard privacy</text><rect x="950" y="145" width="515" height="70" rx="18" fill="#061007" stroke="#7fee64" stroke-width="2" opacity="1"/><text x="968" y="179" fill="#ddffdc" font-family="Inter, Arial, sans-serif" font-size="17" font-weight="700" opacity="1"><tspan x="968" dy="0">Legend</tspan></text><text x="968" y="211" fill="#bad8b6" font-family="Inter, Arial, sans-serif" font-size="13" font-weight="500" opacity="1"><tspan x="968" dy="0">green: PFTL state | cyan: venue receipt</tspan><tspan x="968" dy="16.25">purple: private action | amber: policy gate</tspan></text><circle cx="110" cy="188" r="18" fill="#071107" stroke="#7fee64" stroke-width="2"/><text x="110" y="194" fill="#7fee64" font-family="IBM Plex Mono, ui-monospace, SFMono-Regular, Menlo, monospace" font-size="16" font-weight="800" text-anchor="middle" opacity="1">1</text><rect x="130" y="158" width="118" height="60" rx="18" fill="#07110a" stroke="#7fee64" stroke-width="2" opacity="1"/><text x="148" y="192" fill="#ddffdc" font-family="Inter, Arial, sans-serif" font-size="15" font-weight="700" opacity="1"><tspan x="148" dy="0">collect</tspan><tspan x="148" dy="18.75">evidence</tspan></text><circle cx="295" cy="188" r="18" fill="#071107" stroke="#7fee64" stroke-width="2"/><text x="295" y="194" fill="#7fee64" font-family="IBM Plex Mono, ui-monospace, SFMono-Regular, Menlo, monospace" font-size="16" font-weight="800" text-anchor="middle" opacity="1">2</text><rect x="315" y="158" width="118" height="60" rx="18" fill="#07110a" stroke="#7fee64" stroke-width="2" opacity="1"/><text x="333" y="192" fill="#ddffdc" font-family="Inter, Arial, sans-serif" font-size="15" font-weight="700" opacity="1"><tspan x="333" dy="0">prove</tspan><tspan x="333" dy="18.75">NAV</tspan></text><circle cx="480" cy="338" r="18" fill="#071107" stroke="#7fee64" stroke-width="2"/><text x="480" y="344" fill="#7fee64" font-family="IBM Plex Mono, ui-monospace, SFMono-Regular, Menlo, monospace" font-size="16" font-weight="800" text-anchor="middle" opacity="1">3</text><rect x="500" y="308" width="118" height="60" rx="18" fill="#07110a" stroke="#7fee64" stroke-width="2" opacity="1"/><text x="518" y="342" fill="#ddffdc" font-family="Inter, Arial, sans-serif" font-size="15" font-weight="700" opacity="1"><tspan x="518" dy="0">finalize</tspan><tspan x="518" dy="18.75">epoch</tspan></text><circle cx="665" cy="338" r="18" fill="#071107" stroke="#7fee64" stroke-width="2"/><text x="665" y="344" fill="#7fee64" font-family="IBM Plex Mono, ui-monospace, SFMono-Regular, Menlo, monospace" font-size="16" font-weight="800" text-anchor="middle" opacity="1">4</text><rect x="685" y="308" width="118" height="60" rx="18" fill="#07110a" stroke="#7fee64" stroke-width="2" opacity="1"/><text x="703" y="342" fill="#ddffdc" font-family="Inter, Arial, sans-serif" font-size="15" font-weight="700" opacity="1"><tspan x="703" dy="0">mint</tspan><tspan x="703" dy="18.75">native</tspan></text><circle cx="850" cy="338" r="18" fill="#071107" stroke="#ffd166" stroke-width="2"/><text x="850" y="344" fill="#ffd166" font-family="IBM Plex Mono, ui-monospace, SFMono-Regular, Menlo, monospace" font-size="16" font-weight="800" text-anchor="middle" opacity="1">5</text><rect x="870" y="308" width="118" height="60" rx="18" fill="#07110a" stroke="#ffd166" stroke-width="2" opacity="1"/><text x="888" y="342" fill="#ddffdc" font-family="Inter, Arial, sans-serif" font-size="15" font-weight="700" opacity="1"><tspan x="888" dy="0">debit /</tspan><tspan x="888" dy="18.75">lock</tspan></text><circle cx="995" cy="488" r="18" fill="#071107" stroke="#4fc3ff" stroke-width="2"/><text x="995" y="494" fill="#4fc3ff" font-family="IBM Plex Mono, ui-monospace, SFMono-Regular, Menlo, monospace" font-size="16" font-weight="800" text-anchor="middle" opacity="1">6</text><rect x="1015" y="458" width="118" height="60" rx="18" fill="#061018" stroke="#4fc3ff" stroke-width="2" opacity="1"/><text x="1033" y="492" fill="#ddffdc" font-family="Inter, Arial, sans-serif" font-size="15" font-weight="700" opacity="1"><tspan x="1033" dy="0">verify</tspan><tspan x="1033" dy="18.75">packet</tspan></text><circle cx="1170" cy="488" r="18" fill="#071107" stroke="#4fc3ff" stroke-width="2"/><text x="1170" y="494" fill="#4fc3ff" font-family="IBM Plex Mono, ui-monospace, SFMono-Regular, Menlo, monospace" font-size="16" font-weight="800" text-anchor="middle" opacity="1">7</text><rect x="1190" y="458" width="118" height="60" rx="18" fill="#061018" stroke="#4fc3ff" stroke-width="2" opacity="1"/><text x="1208" y="492" fill="#ddffdc" font-family="Inter, Arial, sans-serif" font-size="15" font-weight="700" opacity="1"><tspan x="1208" dy="0">mint</tspan><tspan x="1208" dy="18.75">wNAV</tspan></text><circle cx="1340" cy="488" r="18" fill="#071107" stroke="#4fc3ff" stroke-width="2"/><text x="1340" y="494" fill="#4fc3ff" font-family="IBM Plex Mono, ui-monospace, SFMono-Regular, Menlo, monospace" font-size="16" font-weight="800" text-anchor="middle" opacity="1">8</text><rect x="1360" y="458" width="118" height="60" rx="18" fill="#061018" stroke="#4fc3ff" stroke-width="2" opacity="1"/><text x="1378" y="492" fill="#ddffdc" font-family="Inter, Arial, sans-serif" font-size="15" font-weight="700" opacity="1"><tspan x="1378" dy="0">USDC</tspan><tspan x="1378" dy="18.75">pool</tspan></text><circle cx="545" cy="638" r="18" fill="#071107" stroke="#b18cff" stroke-width="2"/><text x="545" y="644" fill="#b18cff" font-family="IBM Plex Mono, ui-monospace, SFMono-Regular, Menlo, monospace" font-size="16" font-weight="800" text-anchor="middle" opacity="1">9</text><rect x="565" y="608" width="118" height="60" rx="18" fill="#110b18" stroke="#b18cff" stroke-width="2" opacity="1"/><text x="583" y="642" fill="#ddffdc" font-family="Inter, Arial, sans-serif" font-size="15" font-weight="700" opacity="1"><tspan x="583" dy="0">shield</tspan><tspan x="583" dy="18.75">note</tspan></text><circle cx="730" cy="638" r="18" fill="#071107" stroke="#b18cff" stroke-width="2"/><text x="730" y="644" fill="#b18cff" font-family="IBM Plex Mono, ui-monospace, SFMono-Regular, Menlo, monospace" font-size="16" font-weight="800" text-anchor="middle" opacity="1">10</text><rect x="750" y="608" width="118" height="60" rx="18" fill="#110b18" stroke="#b18cff" stroke-width="2" opacity="1"/><text x="768" y="642" fill="#ddffdc" font-family="Inter, Arial, sans-serif" font-size="15" font-weight="700" opacity="1"><tspan x="768" dy="0">private</tspan><tspan x="768" dy="18.75">swap</tspan></text><circle cx="915" cy="638" r="18" fill="#071107" stroke="#b18cff" stroke-width="2"/><text x="915" y="644" fill="#b18cff" font-family="IBM Plex Mono, ui-monospace, SFMono-Regular, Menlo, monospace" font-size="16" font-weight="800" text-anchor="middle" opacity="1">11</text><rect x="935" y="608" width="118" height="60" rx="18" fill="#110b18" stroke="#b18cff" stroke-width="2" opacity="1"/><text x="953" y="642" fill="#ddffdc" font-family="Inter, Arial, sans-serif" font-size="15" font-weight="700" opacity="1"><tspan x="953" dy="0">private</tspan><tspan x="953" dy="18.75">egress</tspan></text><circle cx="1100" cy="638" r="18" fill="#071107" stroke="#ffd166" stroke-width="2"/><text x="1100" y="644" fill="#ffd166" font-family="IBM Plex Mono, ui-monospace, SFMono-Regular, Menlo, monospace" font-size="16" font-weight="800" text-anchor="middle" opacity="1">12</text><rect x="1120" y="608" width="118" height="60" rx="18" fill="#07110a" stroke="#ffd166" stroke-width="2" opacity="1"/><text x="1138" y="642" fill="#ddffdc" font-family="Inter, Arial, sans-serif" font-size="15" font-weight="700" opacity="1"><tspan x="1138" dy="0">redeem /</tspan><tspan x="1138" dy="18.75">withdraw</tspan></text><line x1="248" y1="188" x2="277" y2="188" stroke="#7fee64" stroke-width="2" marker-end="url(#arrow-mint)" opacity="1"/><line x1="433" y1="188" x2="462" y2="338" stroke="#7fee64" stroke-width="2" marker-end="url(#arrow-mint)" opacity="1"/><line x1="618" y1="338" x2="647" y2="338" stroke="#7fee64" stroke-width="2" marker-end="url(#arrow-mint)" opacity="1"/><line x1="803" y1="338" x2="832" y2="338" stroke="#ffd166" stroke-width="2" marker-end="url(#arrow-amber)" opacity="1"/><line x1="988" y1="338" x2="977" y2="488" stroke="#4fc3ff" stroke-width="2" marker-end="url(#arrow-cyan)" opacity="1"/><line x1="1133" y1="488" x2="1152" y2="488" stroke="#4fc3ff" stroke-width="2" marker-end="url(#arrow-cyan)" opacity="1"/><line x1="1308" y1="488" x2="1322" y2="488" stroke="#4fc3ff" stroke-width="2" marker-end="url(#arrow-cyan)" opacity="1"/><path d="M1420 520 C1280 560 920 580 683 638" fill="none" stroke="#b18cff" stroke-width="2.5" marker-end="url(#arrow-cyan)" opacity="0.9"/><line x1="683" y1="638" x2="712" y2="638" stroke="#b18cff" stroke-width="2" marker-end="url(#arrow-cyan)" opacity="1"/><line x1="868" y1="638" x2="897" y2="638" stroke="#b18cff" stroke-width="2" marker-end="url(#arrow-cyan)" opacity="1"/><line x1="1053" y1="638" x2="1082" y2="638" stroke="#ffd166" stroke-width="2" marker-end="url(#arrow-amber)" opacity="1"/><text x="90" y="805" fill="#ddffdc" font-family="Inter, Arial, sans-serif" font-size="22" font-weight="700" text-anchor="start" opacity="1">Rule: every venue action and privacy action must trace back to PFTL proof state or a finalized receipt.</text></svg>
