<svg xmlns="http://www.w3.org/2000/svg" width="1600" height="900" viewBox="0 0 1600 900" role="img" aria-label="08 / Wrapped Token Claim Ticket">
<defs>
  <marker id="arrow-mint" markerWidth="12" markerHeight="12" refX="10" refY="6" orient="auto"><path d="M2 2 L10 6 L2 10 Z" fill="#7fee64"/></marker>
  <marker id="arrow-cyan" markerWidth="12" markerHeight="12" refX="10" refY="6" orient="auto"><path d="M2 2 L10 6 L2 10 Z" fill="#4fc3ff"/></marker>
  <marker id="arrow-amber" markerWidth="12" markerHeight="12" refX="10" refY="6" orient="auto"><path d="M2 2 L10 6 L2 10 Z" fill="#ffd166"/></marker>
  <marker id="arrow-red" markerWidth="12" markerHeight="12" refX="10" refY="6" orient="auto"><path d="M2 2 L10 6 L2 10 Z" fill="#ff6868"/></marker>
  <marker id="arrow-gray" markerWidth="12" markerHeight="12" refX="10" refY="6" orient="auto"><path d="M2 2 L10 6 L2 10 Z" fill="#6f7b70"/></marker>
  <filter id="glow"><feGaussianBlur stdDeviation="3" result="b"/><feMerge><feMergeNode in="b"/><feMergeNode in="SourceGraphic"/></feMerge></filter>
  <pattern id="grid" width="40" height="40" patternUnits="userSpaceOnUse"><path d="M40 0H0V40" fill="none" stroke="#0d1c11" stroke-width="1" opacity="0.45"/></pattern>
</defs>
<rect width="1600" height="900" fill="#030604"/>
<rect width="1600" height="900" fill="url(#grid)" opacity="0.55"/>
<rect x="28" y="26" width="1544" height="848" rx="24" fill="none" stroke="#23402a" stroke-width="2"/>
<text x="60" y="62" fill="#ddffdc" font-family="Inter, Arial, sans-serif" font-size="28" font-weight="700" text-anchor="start" opacity="1">08 / Wrapped Token Claim Ticket</text><line x1="60" y1="86" x2="1540" y2="86" stroke="#23402a" stroke-width="2" opacity="1"/><rect x="80" y="150" width="390" height="510" rx="16" fill="#050805" stroke="#7fee64" stroke-width="2" opacity="0.92"/><text x="98" y="178" fill="#7fee64" font-family="IBM Plex Mono, ui-monospace, SFMono-Regular, Menlo, monospace" font-size="16" font-weight="700" text-anchor="start" opacity="1">PFTL native supply</text><rect x="555" y="150" width="420" height="510" rx="16" fill="#050805" stroke="#ffd166" stroke-width="2" opacity="0.92"/><text x="573" y="178" fill="#ffd166" font-family="IBM Plex Mono, ui-monospace, SFMono-Regular, Menlo, monospace" font-size="16" font-weight="700" text-anchor="start" opacity="1">Bridge accounting</text><rect x="1060" y="150" width="430" height="510" rx="16" fill="#050805" stroke="#4fc3ff" stroke-width="2" opacity="0.92"/><text x="1078" y="178" fill="#4fc3ff" font-family="IBM Plex Mono, ui-monospace, SFMono-Regular, Menlo, monospace" font-size="16" font-weight="700" text-anchor="start" opacity="1">Ethereum wNAV contract</text><rect x="125" y="230" width="250" height="80" rx="18" fill="#07110a" stroke="#7fee64" stroke-width="2" opacity="1"/><text x="143" y="264" fill="#ddffdc" font-family="Inter, Arial, sans-serif" font-size="22" font-weight="700" opacity="1"><tspan x="143" dy="0">native NAVCoin</tspan></text><rect x="125" y="360" width="250" height="80" rx="18" fill="#07110a" stroke="#7fee64" stroke-width="2" opacity="1"/><text x="143" y="394" fill="#ddffdc" font-family="Inter, Arial, sans-serif" font-size="22" font-weight="700" opacity="1"><tspan x="143" dy="0">locked / debited</tspan></text><rect x="125" y="490" width="250" height="80" rx="18" fill="#07110a" stroke="#7fee64" stroke-width="2" opacity="1"/><text x="143" y="524" fill="#ddffdc" font-family="Inter, Arial, sans-serif" font-size="22" font-weight="700" opacity="1"><tspan x="143" dy="0">bridge receipt</tspan></text><rect x="615" y="230" width="300" height="80" rx="18" fill="#141006" stroke="#ffd166" stroke-width="2" opacity="1"/><text x="633" y="264" fill="#ddffdc" font-family="Inter, Arial, sans-serif" font-size="22" font-weight="700" opacity="1"><tspan x="633" dy="0">used nonces</tspan></text><rect x="615" y="360" width="300" height="80" rx="18" fill="#141006" stroke="#ffd166" stroke-width="2" opacity="1"/><text x="633" y="394" fill="#ddffdc" font-family="Inter, Arial, sans-serif" font-size="22" font-weight="700" opacity="1"><tspan x="633" dy="0">outstanding wNAV</tspan></text><rect x="615" y="490" width="300" height="80" rx="18" fill="#141006" stroke="#ffd166" stroke-width="2" opacity="1"/><text x="633" y="524" fill="#ddffdc" font-family="Inter, Arial, sans-serif" font-size="22" font-weight="700" opacity="1"><tspan x="633" dy="0">burn receipts</tspan></text><rect x="1110" y="225" width="290" height="75" rx="18" fill="#061018" stroke="#4fc3ff" stroke-width="2" opacity="1"/><text x="1128" y="259" fill="#ddffdc" font-family="Inter, Arial, sans-serif" font-size="21" font-weight="700" opacity="1"><tspan x="1128" dy="0">mint only verifier</tspan></text><rect x="1110" y="350" width="290" height="75" rx="18" fill="#061018" stroke="#4fc3ff" stroke-width="2" opacity="1"/><text x="1128" y="384" fill="#ddffdc" font-family="Inter, Arial, sans-serif" font-size="21" font-weight="700" opacity="1"><tspan x="1128" dy="0">transfer / trade</tspan></text><rect x="1110" y="475" width="290" height="75" rx="18" fill="#061018" stroke="#4fc3ff" stroke-width="2" opacity="1"/><text x="1128" y="509" fill="#ddffdc" font-family="Inter, Arial, sans-serif" font-size="21" font-weight="700" opacity="1"><tspan x="1128" dy="0">burn for return</tspan></text><line x1="375" y1="530" x2="615" y2="400" stroke="#ffd166" stroke-width="2" marker-end="url(#arrow-amber)" opacity="1"/><line x1="915" y1="400" x2="1110" y2="260" stroke="#4fc3ff" stroke-width="2" marker-end="url(#arrow-cyan)" opacity="1"/><line x1="1110" y1="513" x2="915" y2="530" stroke="#ffd166" stroke-width="2" marker-end="url(#arrow-amber)" opacity="1"/><path d="M125 710 H1390" fill="none" stroke="#7fee64" stroke-width="3" marker-end="url(#arrow-mint)" opacity="1"/><text x="130" y="700" fill="#ddffdc" font-family="Inter, Arial, sans-serif" font-size="24" font-weight="700" text-anchor="start" opacity="1">Redemption path: burn wNAV -&gt; prove burn -&gt; release native NAVCoin</text><rect x="430" y="755" width="650" height="34" rx="17" fill="#071107" stroke="#7fee64" stroke-width="1.5"/><text x="755.0" y="778" fill="#7fee64" font-family="IBM Plex Mono, ui-monospace, SFMono-Regular, Menlo, monospace" font-size="14" font-weight="700" text-anchor="middle" opacity="1">outstanding wNAV = bridge-out receipts - verified burns</text></svg>
