<svg xmlns="http://www.w3.org/2000/svg" width="1600" height="900" viewBox="0 0 1600 900" role="img" aria-label="05 / Native NAVCoin Comes Before Wrapping">
<defs>
  <marker id="arrow-mint" markerWidth="12" markerHeight="12" refX="10" refY="6" orient="auto"><path d="M2 2 L10 6 L2 10 Z" fill="#7fee64"/></marker>
  <marker id="arrow-cyan" markerWidth="12" markerHeight="12" refX="10" refY="6" orient="auto"><path d="M2 2 L10 6 L2 10 Z" fill="#4fc3ff"/></marker>
  <marker id="arrow-amber" markerWidth="12" markerHeight="12" refX="10" refY="6" orient="auto"><path d="M2 2 L10 6 L2 10 Z" fill="#ffd166"/></marker>
  <marker id="arrow-red" markerWidth="12" markerHeight="12" refX="10" refY="6" orient="auto"><path d="M2 2 L10 6 L2 10 Z" fill="#ff6868"/></marker>
  <marker id="arrow-gray" markerWidth="12" markerHeight="12" refX="10" refY="6" orient="auto"><path d="M2 2 L10 6 L2 10 Z" fill="#6f7b70"/></marker>
  <filter id="glow"><feGaussianBlur stdDeviation="3" result="b"/><feMerge><feMergeNode in="b"/><feMergeNode in="SourceGraphic"/></feMerge></filter>
  <pattern id="grid" width="40" height="40" patternUnits="userSpaceOnUse"><path d="M40 0H0V40" fill="none" stroke="#0d1c11" stroke-width="1" opacity="0.45"/></pattern>
</defs>
<rect width="1600" height="900" fill="#030604"/>
<rect width="1600" height="900" fill="url(#grid)" opacity="0.55"/>
<rect x="28" y="26" width="1544" height="848" rx="24" fill="none" stroke="#23402a" stroke-width="2"/>
<text x="60" y="62" fill="#ddffdc" font-family="Inter, Arial, sans-serif" font-size="28" font-weight="700" text-anchor="start" opacity="1">05 / Native NAVCoin Comes Before Wrapping</text><line x1="60" y1="86" x2="1540" y2="86" stroke="#23402a" stroke-width="2" opacity="1"/><rect x="100" y="235" width="315" height="255" rx="18" fill="#061018" stroke="#4fc3ff" stroke-width="2" opacity="1"/><text x="118" y="269" fill="#ddffdc" font-family="Inter, Arial, sans-serif" font-size="26" font-weight="700" opacity="1"><tspan x="118" dy="0">User input</tspan></text><text x="118" y="301" fill="#bad8b6" font-family="Inter, Arial, sans-serif" font-size="22" font-weight="500" opacity="1"><tspan x="118" dy="0">pfUSDC</tspan><tspan x="118" dy="27.5">user PFTL account</tspan><tspan x="118" dy="27.5">amount</tspan></text><line x1="415" y1="362" x2="525" y2="362" stroke="#4fc3ff" stroke-width="2" marker-end="url(#arrow-cyan)" opacity="1"/><polygon points="680,247.0 835.0,362 680,477.0 525.0,362" fill="#171306" stroke="#ffd166" stroke-width="2"/><text x="537.0" y="356" fill="#ffd166" font-family="IBM Plex Mono, ui-monospace, SFMono-Regular, Menlo, monospace" font-size="14" font-weight="700" opacity="1"><tspan x="537.0" dy="0">NAV policy gate</tspan></text><rect x="545" y="525" width="270" height="34" rx="17" fill="#071107" stroke="#ffd166" stroke-width="1.5"/><text x="680.0" y="548" fill="#ffd166" font-family="IBM Plex Mono, ui-monospace, SFMono-Regular, Menlo, monospace" font-size="14" font-weight="700" text-anchor="middle" opacity="1">fresh NAV epoch</text><rect x="545" y="568" width="270" height="34" rx="17" fill="#071107" stroke="#ffd166" stroke-width="1.5"/><text x="680.0" y="591" fill="#ffd166" font-family="IBM Plex Mono, ui-monospace, SFMono-Regular, Menlo, monospace" font-size="14" font-weight="700" text-anchor="middle" opacity="1">supply available</text><rect x="545" y="611" width="270" height="34" rx="17" fill="#071107" stroke="#ffd166" stroke-width="1.5"/><text x="680.0" y="634" fill="#ffd166" font-family="IBM Plex Mono, ui-monospace, SFMono-Regular, Menlo, monospace" font-size="14" font-weight="700" text-anchor="middle" opacity="1">input counted</text><rect x="545" y="654" width="270" height="34" rx="17" fill="#071107" stroke="#ffd166" stroke-width="1.5"/><text x="680.0" y="677" fill="#ffd166" font-family="IBM Plex Mono, ui-monospace, SFMono-Regular, Menlo, monospace" font-size="14" font-weight="700" text-anchor="middle" opacity="1">liabilities unchanged</text><rect x="545" y="697" width="270" height="34" rx="17" fill="#071107" stroke="#ffd166" stroke-width="1.5"/><text x="680.0" y="720" fill="#ffd166" font-family="IBM Plex Mono, ui-monospace, SFMono-Regular, Menlo, monospace" font-size="14" font-weight="700" text-anchor="middle" opacity="1">receipt produced</text><line x1="835" y1="362" x2="945" y2="362" stroke="#ffd166" stroke-width="2" marker-end="url(#arrow-amber)" opacity="1"/><rect x="945" y="225" width="410" height="270" rx="18" fill="#07140a" stroke="#7fee64" stroke-width="2" opacity="1"/><text x="963" y="259" fill="#ddffdc" font-family="Inter, Arial, sans-serif" font-size="26" font-weight="700" opacity="1"><tspan x="963" dy="0">PFTL native balance</tspan></text><text x="963" y="291" fill="#bad8b6" font-family="Inter, Arial, sans-serif" font-size="23" font-weight="500" opacity="1"><tspan x="963" dy="0">native NAVCoin</tspan><tspan x="963" dy="28.75">state receipt</tspan><tspan x="963" dy="28.75">updated supply</tspan></text><rect x="1030" y="560" width="325" height="90" rx="18" fill="#080a08" stroke="#6f7b70" stroke-width="2" stroke-dasharray="10 8" opacity="1"/><text x="1048" y="594" fill="#6f7b70" font-family="Inter, Arial, sans-serif" font-size="22" font-weight="700" opacity="1"><tspan x="1048" dy="0">Ethereum venue</tspan></text><text x="1048" y="626" fill="#bad8b6" font-family="Inter, Arial, sans-serif" font-size="18" font-weight="500" opacity="1"><tspan x="1048" dy="0">not allowed to mint reality here</tspan></text><text x="110" y="790" fill="#ddffdc" font-family="Inter, Arial, sans-serif" font-size="25" font-weight="700" text-anchor="start" opacity="1">Native supply is created under PFTL policy before any wrapped venue token exists.</text></svg>
