<svg xmlns="http://www.w3.org/2000/svg" width="1600" height="900" viewBox="0 0 1600 900">
<rect width="1600" height="900" fill="#020604"/>
<defs><marker id="arrow-mint" viewBox="0 0 10 10" markerWidth="10" markerHeight="10" refX="9" refY="5" orient="auto" markerUnits="userSpaceOnUse"><path d="M0 0 L10 5 L0 10 Z" fill="#7fee64"/></marker><marker id="arrow-cyan" viewBox="0 0 10 10" markerWidth="10" markerHeight="10" refX="9" refY="5" orient="auto" markerUnits="userSpaceOnUse"><path d="M0 0 L10 5 L0 10 Z" fill="#22c7ff"/></marker><marker id="arrow-amber" viewBox="0 0 10 10" markerWidth="10" markerHeight="10" refX="9" refY="5" orient="auto" markerUnits="userSpaceOnUse"><path d="M0 0 L10 5 L0 10 Z" fill="#ffd75e"/></marker><marker id="arrow-purple" viewBox="0 0 10 10" markerWidth="10" markerHeight="10" refX="9" refY="5" orient="auto" markerUnits="userSpaceOnUse"><path d="M0 0 L10 5 L0 10 Z" fill="#b17aff"/></marker></defs>
<rect x="28" y="26" width="1544" height="848" rx="26" fill="#020604" stroke="#1f5f32" stroke-width="2"/>
<text x="60" y="74" font-family="IBM Plex Mono, ui-monospace, monospace" font-size="34" font-weight="800" fill="#ddffdc">07 / Bridge Finality Verification</text>
<line x1="60" y1="106" x2="1540" y2="106" stroke="#21482a" stroke-width="2"/>
<rect x="85" y="310" width="260" height="150" rx="14" fill="#151006" stroke="#ffd75e" stroke-width="2.5"/>
<text x="215.0" y="365.86" text-anchor="middle" font-family="Inter Tight, Arial, sans-serif" font-size="33" font-weight="800" fill="#ddffdc">incoming</text>
<text x="215.0" y="403.81" text-anchor="middle" font-family="Inter Tight, Arial, sans-serif" font-size="22" font-weight="650" fill="#8aa286">packet</text>
<rect x="485" y="165" width="300" height="54" rx="14" fill="#061018" stroke="#22c7ff" stroke-width="2.5"/>
<text x="635.0" y="192.0" text-anchor="middle" font-family="Inter Tight, Arial, sans-serif" font-size="25" font-weight="800" fill="#ddffdc">domain</text>
<line x1="345" y1="385" x2="485" y2="192" stroke="#22c7ff" stroke-width="3" marker-end="url(#arrow-cyan)"/>
<rect x="485" y="241" width="300" height="54" rx="14" fill="#061018" stroke="#22c7ff" stroke-width="2.5"/>
<text x="635.0" y="268.0" text-anchor="middle" font-family="Inter Tight, Arial, sans-serif" font-size="25" font-weight="800" fill="#ddffdc">receipt root</text>
<line x1="345" y1="385" x2="485" y2="268" stroke="#ffd75e" stroke-width="3" marker-end="url(#arrow-amber)"/>
<rect x="485" y="317" width="300" height="54" rx="14" fill="#061018" stroke="#22c7ff" stroke-width="2.5"/>
<text x="635.0" y="344.0" text-anchor="middle" font-family="Inter Tight, Arial, sans-serif" font-size="25" font-weight="800" fill="#ddffdc">validator cert</text>
<line x1="345" y1="385" x2="485" y2="344" stroke="#ffd75e" stroke-width="3" marker-end="url(#arrow-amber)"/>
<rect x="485" y="393" width="300" height="54" rx="14" fill="#061018" stroke="#22c7ff" stroke-width="2.5"/>
<text x="635.0" y="420.0" text-anchor="middle" font-family="Inter Tight, Arial, sans-serif" font-size="25" font-weight="800" fill="#ddffdc">field match</text>
<line x1="345" y1="385" x2="485" y2="420" stroke="#ffd75e" stroke-width="3" marker-end="url(#arrow-amber)"/>
<rect x="485" y="469" width="300" height="54" rx="14" fill="#061018" stroke="#22c7ff" stroke-width="2.5"/>
<text x="635.0" y="496.0" text-anchor="middle" font-family="Inter Tight, Arial, sans-serif" font-size="25" font-weight="800" fill="#ddffdc">freshness</text>
<line x1="345" y1="385" x2="485" y2="496" stroke="#ffd75e" stroke-width="3" marker-end="url(#arrow-amber)"/>
<rect x="485" y="545" width="300" height="54" rx="14" fill="#061018" stroke="#22c7ff" stroke-width="2.5"/>
<text x="635.0" y="572.0" text-anchor="middle" font-family="Inter Tight, Arial, sans-serif" font-size="25" font-weight="800" fill="#ddffdc">nonce unused</text>
<line x1="345" y1="385" x2="485" y2="572" stroke="#ffd75e" stroke-width="3" marker-end="url(#arrow-amber)"/>
<line x1="785" y1="390" x2="950" y2="300" stroke="#7fee64" stroke-width="3" marker-end="url(#arrow-mint)"/>
<rect x="950" y="230" width="280" height="125" rx="14" fill="#07140a" stroke="#7fee64" stroke-width="2.5"/>
<text x="1090.0" y="272.78" text-anchor="middle" font-family="Inter Tight, Arial, sans-serif" font-size="34" font-weight="800" fill="#ddffdc">ACCEPT</text>
<text x="1090.0" y="311.88" text-anchor="middle" font-family="Inter Tight, Arial, sans-serif" font-size="24" font-weight="650" fill="#8aa286">mint / release</text>
<line x1="785" y1="390" x2="950" y2="515" stroke="#ff5c66" stroke-width="3" marker-end="url(#arrow-red)"/>
<rect x="950" y="475" width="280" height="125" rx="14" fill="#1a0708" stroke="#ff5c66" stroke-width="2.5"/>
<text x="1090.0" y="517.78" text-anchor="middle" font-family="Inter Tight, Arial, sans-serif" font-size="34" font-weight="800" fill="#ddffdc">REJECT</text>
<text x="1090.0" y="556.88" text-anchor="middle" font-family="Inter Tight, Arial, sans-serif" font-size="24" font-weight="650" fill="#8aa286">no state change</text>
<text x="800" y="760" text-anchor="middle" font-family="Inter Tight, Arial, sans-serif" font-size="34" font-weight="700" fill="#ddffdc">Mutation, replay, or stale proof fails closed.</text>
</svg>