<svg xmlns="http://www.w3.org/2000/svg" width="1600" height="900" viewBox="0 0 1600 900" role="img" aria-label="02 / Chain Of Custody">
<defs>
  <marker id="arrow-mint" markerWidth="12" markerHeight="12" refX="10" refY="6" orient="auto"><path d="M2 2 L10 6 L2 10 Z" fill="#7fee64"/></marker>
  <marker id="arrow-cyan" markerWidth="12" markerHeight="12" refX="10" refY="6" orient="auto"><path d="M2 2 L10 6 L2 10 Z" fill="#4fc3ff"/></marker>
  <marker id="arrow-amber" markerWidth="12" markerHeight="12" refX="10" refY="6" orient="auto"><path d="M2 2 L10 6 L2 10 Z" fill="#ffd166"/></marker>
  <marker id="arrow-red" markerWidth="12" markerHeight="12" refX="10" refY="6" orient="auto"><path d="M2 2 L10 6 L2 10 Z" fill="#ff6868"/></marker>
  <marker id="arrow-gray" markerWidth="12" markerHeight="12" refX="10" refY="6" orient="auto"><path d="M2 2 L10 6 L2 10 Z" fill="#6f7b70"/></marker>
  <filter id="glow"><feGaussianBlur stdDeviation="3" result="b"/><feMerge><feMergeNode in="b"/><feMergeNode in="SourceGraphic"/></feMerge></filter>
  <pattern id="grid" width="40" height="40" patternUnits="userSpaceOnUse"><path d="M40 0H0V40" fill="none" stroke="#0d1c11" stroke-width="1" opacity="0.45"/></pattern>
</defs>
<rect width="1600" height="900" fill="#030604"/>
<rect width="1600" height="900" fill="url(#grid)" opacity="0.55"/>
<rect x="28" y="26" width="1544" height="848" rx="24" fill="none" stroke="#23402a" stroke-width="2"/>
<text x="60" y="62" fill="#ddffdc" font-family="Inter, Arial, sans-serif" font-size="28" font-weight="700" text-anchor="start" opacity="1">02 / Chain Of Custody</text><line x1="60" y1="86" x2="1540" y2="86" stroke="#23402a" stroke-width="2" opacity="1"/><rect x="70" y="120" width="1460" height="128" rx="16" fill="#050805" stroke="#7fee64" stroke-width="2" opacity="0.92"/><text x="88" y="148" fill="#7fee64" font-family="IBM Plex Mono, ui-monospace, SFMono-Regular, Menlo, monospace" font-size="16" font-weight="700" text-anchor="start" opacity="1">Reserve evidence</text><rect x="70" y="280" width="1460" height="128" rx="16" fill="#050805" stroke="#7fee64" stroke-width="2" opacity="0.92"/><text x="88" y="308" fill="#7fee64" font-family="IBM Plex Mono, ui-monospace, SFMono-Regular, Menlo, monospace" font-size="16" font-weight="700" text-anchor="start" opacity="1">PFTL canonical state</text><rect x="70" y="440" width="1460" height="128" rx="16" fill="#050805" stroke="#4fc3ff" stroke-width="2" opacity="0.92"/><text x="88" y="468" fill="#4fc3ff" font-family="IBM Plex Mono, ui-monospace, SFMono-Regular, Menlo, monospace" font-size="16" font-weight="700" text-anchor="start" opacity="1">Ethereum venue</text><rect x="70" y="600" width="1460" height="128" rx="16" fill="#050805" stroke="#b18cff" stroke-width="2" stroke-dasharray="12 9" opacity="0.92"/><text x="88" y="628" fill="#b18cff" font-family="IBM Plex Mono, ui-monospace, SFMono-Regular, Menlo, monospace" font-size="16" font-weight="700" text-anchor="start" opacity="1">Orchard privacy</text><rect x="120" y="158" width="130" height="70" rx="18" fill="#07120a" stroke="#7fee64" stroke-width="2" opacity="1"/><text x="138" y="192" fill="#ddffdc" font-family="Inter, Arial, sans-serif" font-size="17" font-weight="700" opacity="1"><tspan x="138" dy="0">reserve</tspan><tspan x="138" dy="21.25">legs</tspan></text><rect x="300" y="158" width="130" height="70" rx="18" fill="#07120a" stroke="#7fee64" stroke-width="2" opacity="1"/><text x="318" y="192" fill="#ddffdc" font-family="Inter, Arial, sans-serif" font-size="17" font-weight="700" opacity="1"><tspan x="318" dy="0">proof</tspan><tspan x="318" dy="21.25">packet</tspan></text><rect x="480" y="318" width="130" height="70" rx="18" fill="#07120a" stroke="#7fee64" stroke-width="2" opacity="1"/><text x="498" y="352" fill="#ddffdc" font-family="Inter, Arial, sans-serif" font-size="17" font-weight="700" opacity="1"><tspan x="498" dy="0">NAV</tspan><tspan x="498" dy="21.25">epoch</tspan></text><rect x="660" y="318" width="130" height="70" rx="18" fill="#07120a" stroke="#7fee64" stroke-width="2" opacity="1"/><text x="678" y="352" fill="#ddffdc" font-family="Inter, Arial, sans-serif" font-size="17" font-weight="700" opacity="1"><tspan x="678" dy="0">native</tspan><tspan x="678" dy="21.25">NAVCoin</tspan></text><rect x="840" y="318" width="130" height="70" rx="18" fill="#07120a" stroke="#ffd166" stroke-width="2" opacity="1"/><text x="858" y="352" fill="#ddffdc" font-family="Inter, Arial, sans-serif" font-size="17" font-weight="700" opacity="1"><tspan x="858" dy="0">bridge</tspan><tspan x="858" dy="21.25">packet</tspan></text><rect x="1020" y="478" width="130" height="70" rx="18" fill="#071018" stroke="#4fc3ff" stroke-width="2" opacity="1"/><text x="1038" y="512" fill="#ddffdc" font-family="Inter, Arial, sans-serif" font-size="17" font-weight="700" opacity="1"><tspan x="1038" dy="0">wrapped</tspan><tspan x="1038" dy="21.25">NAVCoin</tspan></text><rect x="1200" y="478" width="130" height="70" rx="18" fill="#071018" stroke="#4fc3ff" stroke-width="2" opacity="1"/><text x="1218" y="512" fill="#ddffdc" font-family="Inter, Arial, sans-serif" font-size="17" font-weight="700" opacity="1"><tspan x="1218" dy="0">USDC</tspan><tspan x="1218" dy="21.25">pool</tspan><tspan x="1218" dy="21.25">trade</tspan></text><rect x="660" y="638" width="130" height="70" rx="18" fill="#07120a" stroke="#b18cff" stroke-width="2" opacity="1"/><text x="678" y="672" fill="#ddffdc" font-family="Inter, Arial, sans-serif" font-size="17" font-weight="700" opacity="1"><tspan x="678" dy="0">shielded</tspan><tspan x="678" dy="21.25">note</tspan></text><rect x="860" y="638" width="130" height="70" rx="18" fill="#07120a" stroke="#b18cff" stroke-width="2" opacity="1"/><text x="878" y="672" fill="#ddffdc" font-family="Inter, Arial, sans-serif" font-size="17" font-weight="700" opacity="1"><tspan x="878" dy="0">private</tspan><tspan x="878" dy="21.25">egress</tspan></text><rect x="1080" y="638" width="130" height="70" rx="18" fill="#07120a" stroke="#ffd166" stroke-width="2" opacity="1"/><text x="1098" y="672" fill="#ddffdc" font-family="Inter, Arial, sans-serif" font-size="17" font-weight="700" opacity="1"><tspan x="1098" dy="0">public</tspan><tspan x="1098" dy="21.25">exit</tspan></text><line x1="250" y1="193" x2="300" y2="193" stroke="#7fee64" stroke-width="2" marker-end="url(#arrow-mint)" opacity="1"/><line x1="430" y1="193" x2="480" y2="353" stroke="#7fee64" stroke-width="2" marker-end="url(#arrow-mint)" opacity="1"/><line x1="610" y1="353" x2="660" y2="353" stroke="#7fee64" stroke-width="2" marker-end="url(#arrow-mint)" opacity="1"/><line x1="790" y1="353" x2="840" y2="353" stroke="#ffd166" stroke-width="2" marker-end="url(#arrow-amber)" opacity="1"/><line x1="970" y1="353" x2="1020" y2="513" stroke="#4fc3ff" stroke-width="2" marker-end="url(#arrow-cyan)" opacity="1"/><line x1="1150" y1="513" x2="1200" y2="513" stroke="#4fc3ff" stroke-width="2" marker-end="url(#arrow-cyan)" opacity="1"/><line x1="1265" y1="548" x2="1080" y2="638" stroke="#ffd166" stroke-width="2" marker-end="url(#arrow-amber)" opacity="1"/><line x1="790" y1="388" x2="660" y2="638" stroke="#b18cff" stroke-width="2" marker-end="url(#arrow-amber)" opacity="1"/><line x1="790" y1="673" x2="860" y2="673" stroke="#b18cff" stroke-width="2" marker-end="url(#arrow-amber)" opacity="1"/><line x1="990" y1="673" x2="1080" y2="673" stroke="#ffd166" stroke-width="2" marker-end="url(#arrow-amber)" opacity="1"/><line x1="955" y1="265" x2="955" y2="575" stroke="#ffd166" stroke-width="4" stroke-dasharray="10 8" opacity="1"/><text x="955" y="252" fill="#ffd166" font-family="IBM Plex Mono, ui-monospace, SFMono-Regular, Menlo, monospace" font-size="16" font-weight="700" text-anchor="middle" opacity="1">bridge verification</text><rect x="620" y="592" width="520" height="138" rx="18" fill="none" stroke="#b18cff" stroke-width="2" stroke-dasharray="12 8"/><text x="880" y="750" fill="#b18cff" font-family="IBM Plex Mono, ui-monospace, SFMono-Regular, Menlo, monospace" font-size="16" font-weight="700" text-anchor="middle" opacity="1">private wallet-side details</text><text x="90" y="815" fill="#ddffdc" font-family="Inter, Arial, sans-serif" font-size="24" font-weight="700" text-anchor="start" opacity="1">Every downstream claim points back to an epoch, packet, proof, or receipt.</text></svg>
