<svg xmlns="http://www.w3.org/2000/svg" width="1600" height="900" viewBox="0 0 1600 900" role="img" aria-label="06 / Wrapping Is A Receipt">
<defs>
  <marker id="arrow-mint" markerWidth="12" markerHeight="12" refX="10" refY="6" orient="auto"><path d="M2 2 L10 6 L2 10 Z" fill="#7fee64"/></marker>
  <marker id="arrow-cyan" markerWidth="12" markerHeight="12" refX="10" refY="6" orient="auto"><path d="M2 2 L10 6 L2 10 Z" fill="#4fc3ff"/></marker>
  <marker id="arrow-amber" markerWidth="12" markerHeight="12" refX="10" refY="6" orient="auto"><path d="M2 2 L10 6 L2 10 Z" fill="#ffd166"/></marker>
  <marker id="arrow-red" markerWidth="12" markerHeight="12" refX="10" refY="6" orient="auto"><path d="M2 2 L10 6 L2 10 Z" fill="#ff6868"/></marker>
  <marker id="arrow-gray" markerWidth="12" markerHeight="12" refX="10" refY="6" orient="auto"><path d="M2 2 L10 6 L2 10 Z" fill="#6f7b70"/></marker>
  <filter id="glow"><feGaussianBlur stdDeviation="3" result="b"/><feMerge><feMergeNode in="b"/><feMergeNode in="SourceGraphic"/></feMerge></filter>
  <pattern id="grid" width="40" height="40" patternUnits="userSpaceOnUse"><path d="M40 0H0V40" fill="none" stroke="#0d1c11" stroke-width="1" opacity="0.45"/></pattern>
</defs>
<rect width="1600" height="900" fill="#030604"/>
<rect width="1600" height="900" fill="url(#grid)" opacity="0.55"/>
<rect x="28" y="26" width="1544" height="848" rx="24" fill="none" stroke="#23402a" stroke-width="2"/>
<text x="60" y="62" fill="#ddffdc" font-family="Inter, Arial, sans-serif" font-size="28" font-weight="700" text-anchor="start" opacity="1">06 / Wrapping Is A Receipt</text><line x1="60" y1="86" x2="1540" y2="86" stroke="#23402a" stroke-width="2" opacity="1"/><rect x="70" y="135" width="460" height="595" rx="16" fill="#050805" stroke="#7fee64" stroke-width="2" opacity="0.92"/><text x="88" y="163" fill="#7fee64" font-family="IBM Plex Mono, ui-monospace, SFMono-Regular, Menlo, monospace" font-size="16" font-weight="700" text-anchor="start" opacity="1">PFTL</text><rect x="570" y="135" width="430" height="595" rx="16" fill="#050805" stroke="#ffd166" stroke-width="2" opacity="0.92"/><text x="588" y="163" fill="#ffd166" font-family="IBM Plex Mono, ui-monospace, SFMono-Regular, Menlo, monospace" font-size="16" font-weight="700" text-anchor="start" opacity="1">Bridge proof</text><rect x="1040" y="135" width="490" height="595" rx="16" fill="#050805" stroke="#4fc3ff" stroke-width="2" opacity="0.92"/><text x="1058" y="163" fill="#4fc3ff" font-family="IBM Plex Mono, ui-monospace, SFMono-Regular, Menlo, monospace" font-size="16" font-weight="700" text-anchor="start" opacity="1">Ethereum</text><rect x="120" y="215" width="180" height="80" rx="18" fill="#07110a" stroke="#7fee64" stroke-width="2" opacity="1"/><text x="138" y="249" fill="#ddffdc" font-family="Inter, Arial, sans-serif" font-size="20" font-weight="700" opacity="1"><tspan x="138" dy="0">native</tspan><tspan x="138" dy="25.0">NAVCoin</tspan></text><rect x="120" y="360" width="180" height="80" rx="18" fill="#07110a" stroke="#7fee64" stroke-width="2" opacity="1"/><text x="138" y="394" fill="#ddffdc" font-family="Inter, Arial, sans-serif" font-size="20" font-weight="700" opacity="1"><tspan x="138" dy="0">debit or</tspan><tspan x="138" dy="25.0">lock</tspan></text><rect x="120" y="505" width="240" height="95" rx="18" fill="#07110a" stroke="#7fee64" stroke-width="2" opacity="1"/><text x="138" y="539" fill="#ddffdc" font-family="Inter, Arial, sans-serif" font-size="20" font-weight="700" opacity="1"><tspan x="138" dy="0">finalized receipt</tspan></text><text x="138" y="571" fill="#bad8b6" font-family="Inter, Arial, sans-serif" font-size="16" font-weight="500" opacity="1"><tspan x="138" dy="0">PFTL finality</tspan></text><line x1="210" y1="295" x2="210" y2="360" stroke="#7fee64" stroke-width="2" marker-end="url(#arrow-mint)" opacity="1"/><line x1="210" y1="440" x2="210" y2="505" stroke="#7fee64" stroke-width="2" marker-end="url(#arrow-mint)" opacity="1"/><rect x="625" y="200" width="320" height="330" rx="18" fill="#141006" stroke="#ffd166" stroke-width="2" opacity="1"/><text x="643" y="234" fill="#ddffdc" font-family="Inter, Arial, sans-serif" font-size="24" font-weight="700" opacity="1"><tspan x="643" dy="0">Packet fields</tspan></text><text x="643" y="266" fill="#bad8b6" font-family="Inter, Arial, sans-serif" font-size="20" font-weight="500" opacity="1"><tspan x="643" dy="0">source chain</tspan><tspan x="643" dy="25.0">destination chain</tspan><tspan x="643" dy="25.0">asset id</tspan><tspan x="643" dy="25.0">amount</tspan><tspan x="643" dy="25.0">recipient</tspan><tspan x="643" dy="25.0">nonce</tspan><tspan x="643" dy="25.0">expiry</tspan></text><rect x="645" y="575" width="280" height="80" rx="18" fill="#141006" stroke="#ffd166" stroke-width="2" opacity="1"/><text x="663" y="609" fill="#ddffdc" font-family="Inter, Arial, sans-serif" font-size="22" font-weight="700" opacity="1"><tspan x="663" dy="0">finality proof</tspan></text><line x1="360" y1="552" x2="625" y2="365" stroke="#ffd166" stroke-width="2" marker-end="url(#arrow-amber)" opacity="1"/><rect x="1095" y="210" width="280" height="95" rx="18" fill="#061018" stroke="#4fc3ff" stroke-width="2" opacity="1"/><text x="1113" y="244" fill="#ddffdc" font-family="Inter, Arial, sans-serif" font-size="23" font-weight="700" opacity="1"><tspan x="1113" dy="0">bridge verifier</tspan></text><rect x="1095" y="370" width="280" height="95" rx="18" fill="#061018" stroke="#4fc3ff" stroke-width="2" opacity="1"/><text x="1113" y="404" fill="#ddffdc" font-family="Inter, Arial, sans-serif" font-size="23" font-weight="700" opacity="1"><tspan x="1113" dy="0">mint wNAV</tspan></text><rect x="1095" y="530" width="310" height="95" rx="18" fill="#061018" stroke="#4fc3ff" stroke-width="2" opacity="1"/><text x="1113" y="564" fill="#ddffdc" font-family="Inter, Arial, sans-serif" font-size="23" font-weight="700" opacity="1"><tspan x="1113" dy="0">mark nonce used</tspan></text><line x1="945" y1="365" x2="1095" y2="258" stroke="#4fc3ff" stroke-width="2" marker-end="url(#arrow-cyan)" opacity="1"/><line x1="1235" y1="305" x2="1235" y2="370" stroke="#4fc3ff" stroke-width="2" marker-end="url(#arrow-cyan)" opacity="1"/><line x1="1235" y1="465" x2="1235" y2="530" stroke="#4fc3ff" stroke-width="2" marker-end="url(#arrow-cyan)" opacity="1"/><rect x="525" y="760" width="610" height="34" rx="17" fill="#071107" stroke="#7fee64" stroke-width="1.5"/><text x="830.0" y="783" fill="#7fee64" font-family="IBM Plex Mono, ui-monospace, SFMono-Regular, Menlo, monospace" font-size="14" font-weight="700" text-anchor="middle" opacity="1">Invariant: wrapped supply &lt;= PFTL locked/debited supply</text></svg>
