<svg xmlns="http://www.w3.org/2000/svg" width="1600" height="900" viewBox="0 0 1600 900">
<rect width="1600" height="900" fill="#020604"/>
<defs><marker id="arrow-mint" viewBox="0 0 10 10" markerWidth="10" markerHeight="10" refX="9" refY="5" orient="auto" markerUnits="userSpaceOnUse"><path d="M0 0 L10 5 L0 10 Z" fill="#7fee64"/></marker><marker id="arrow-cyan" viewBox="0 0 10 10" markerWidth="10" markerHeight="10" refX="9" refY="5" orient="auto" markerUnits="userSpaceOnUse"><path d="M0 0 L10 5 L0 10 Z" fill="#22c7ff"/></marker><marker id="arrow-amber" viewBox="0 0 10 10" markerWidth="10" markerHeight="10" refX="9" refY="5" orient="auto" markerUnits="userSpaceOnUse"><path d="M0 0 L10 5 L0 10 Z" fill="#ffd75e"/></marker><marker id="arrow-purple" viewBox="0 0 10 10" markerWidth="10" markerHeight="10" refX="9" refY="5" orient="auto" markerUnits="userSpaceOnUse"><path d="M0 0 L10 5 L0 10 Z" fill="#b17aff"/></marker></defs>
<rect x="28" y="26" width="1544" height="848" rx="26" fill="#020604" stroke="#1f5f32" stroke-width="2"/>
<text x="60" y="74" font-family="IBM Plex Mono, ui-monospace, monospace" font-size="34" font-weight="800" fill="#ddffdc">02 / Chain Of Custody</text>
<line x1="60" y1="106" x2="1540" y2="106" stroke="#21482a" stroke-width="2"/>
<rect x="70" y="145" width="1460" height="122" rx="16" fill="#020604" stroke="#7fee64" stroke-width="2.5"/>
<text x="92" y="179" text-anchor="start" font-family="IBM Plex Mono, ui-monospace, monospace" font-size="22" font-weight="650" fill="#7fee64">reserve evidence</text>
<rect x="70" y="285" width="1460" height="122" rx="16" fill="#020604" stroke="#7fee64" stroke-width="2.5"/>
<text x="92" y="319" text-anchor="start" font-family="IBM Plex Mono, ui-monospace, monospace" font-size="22" font-weight="650" fill="#7fee64">PFTL canonical state</text>
<rect x="70" y="425" width="1460" height="122" rx="16" fill="#020604" stroke="#22c7ff" stroke-width="2.5"/>
<text x="92" y="459" text-anchor="start" font-family="IBM Plex Mono, ui-monospace, monospace" font-size="22" font-weight="650" fill="#22c7ff">Ethereum venue</text>
<rect x="70" y="565" width="1460" height="122" rx="16" fill="#020604" stroke="#b17aff" stroke-width="2.5" stroke-dasharray="10 10"/>
<text x="92" y="599" text-anchor="start" font-family="IBM Plex Mono, ui-monospace, monospace" font-size="22" font-weight="650" fill="#b17aff">Orchard privacy</text>
<rect x="120" y="178" width="180" height="68" rx="14" fill="#07140a" stroke="#7fee64" stroke-width="2.5"/>
<text x="210.0" y="198.08" text-anchor="middle" font-family="Inter Tight, Arial, sans-serif" font-size="24" font-weight="800" fill="#ddffdc">reserve</text>
<text x="210.0" y="225.68" text-anchor="middle" font-family="Inter Tight, Arial, sans-serif" font-size="22" font-weight="650" fill="#8aa286">legs</text>
<line x1="300" y1="212" x2="420" y2="212" stroke="#7fee64" stroke-width="3" marker-end="url(#arrow-mint)"/>
<rect x="440" y="178" width="180" height="68" rx="14" fill="#07140a" stroke="#7fee64" stroke-width="2.5"/>
<text x="530.0" y="198.08" text-anchor="middle" font-family="Inter Tight, Arial, sans-serif" font-size="24" font-weight="800" fill="#ddffdc">proof</text>
<text x="530.0" y="225.68" text-anchor="middle" font-family="Inter Tight, Arial, sans-serif" font-size="22" font-weight="650" fill="#8aa286">packet</text>
<rect x="500" y="318" width="180" height="68" rx="14" fill="#07140a" stroke="#7fee64" stroke-width="2.5"/>
<text x="590.0" y="338.08" text-anchor="middle" font-family="Inter Tight, Arial, sans-serif" font-size="24" font-weight="800" fill="#ddffdc">NAV</text>
<text x="590.0" y="365.68" text-anchor="middle" font-family="Inter Tight, Arial, sans-serif" font-size="22" font-weight="650" fill="#8aa286">epoch</text>
<line x1="680" y1="352" x2="800" y2="352" stroke="#7fee64" stroke-width="3" marker-end="url(#arrow-mint)"/>
<rect x="820" y="318" width="200" height="68" rx="14" fill="#07140a" stroke="#7fee64" stroke-width="2.5"/>
<text x="920.0" y="338.08" text-anchor="middle" font-family="Inter Tight, Arial, sans-serif" font-size="24" font-weight="800" fill="#ddffdc">native</text>
<text x="920.0" y="365.68" text-anchor="middle" font-family="Inter Tight, Arial, sans-serif" font-size="22" font-weight="650" fill="#8aa286">NAVCoin</text>
<line x1="1020" y1="352" x2="1140" y2="352" stroke="#ffd75e" stroke-width="3" marker-end="url(#arrow-amber)"/>
<rect x="1160" y="318" width="190" height="68" rx="14" fill="#151006" stroke="#ffd75e" stroke-width="2.5"/>
<text x="1255.0" y="338.08" text-anchor="middle" font-family="Inter Tight, Arial, sans-serif" font-size="24" font-weight="800" fill="#ddffdc">bridge</text>
<text x="1255.0" y="365.68" text-anchor="middle" font-family="Inter Tight, Arial, sans-serif" font-size="22" font-weight="650" fill="#8aa286">receipt</text>
<path d="M1255 386 C1260 430 1280 460 1320 490" fill="none" stroke="#22c7ff" stroke-width="3" marker-end="url(#arrow-cyan)"/>
<rect x="1080" y="458" width="190" height="68" rx="14" fill="#061018" stroke="#22c7ff" stroke-width="2.5"/>
<text x="1175.0" y="478.08" text-anchor="middle" font-family="Inter Tight, Arial, sans-serif" font-size="24" font-weight="800" fill="#ddffdc">wrapped</text>
<text x="1175.0" y="505.68" text-anchor="middle" font-family="Inter Tight, Arial, sans-serif" font-size="22" font-weight="650" fill="#8aa286">NAV</text>
<line x1="1270" y1="492" x2="1370" y2="492" stroke="#22c7ff" stroke-width="3" marker-end="url(#arrow-cyan)"/>
<rect x="1390" y="458" width="110" height="68" rx="14" fill="#061018" stroke="#22c7ff" stroke-width="2.5"/>
<text x="1445.0" y="478.08" text-anchor="middle" font-family="Inter Tight, Arial, sans-serif" font-size="24" font-weight="800" fill="#ddffdc">USDC</text>
<text x="1445.0" y="505.68" text-anchor="middle" font-family="Inter Tight, Arial, sans-serif" font-size="22" font-weight="650" fill="#8aa286">pool</text>
<path d="M1255 386 C1040 470 890 540 780 625" fill="none" stroke="#b17aff" stroke-width="3" marker-end="url(#arrow-purple)"/>
<rect x="600" y="598" width="190" height="68" rx="14" fill="#120b1d" stroke="#b17aff" stroke-width="2.5"/>
<text x="695.0" y="618.08" text-anchor="middle" font-family="Inter Tight, Arial, sans-serif" font-size="24" font-weight="800" fill="#ddffdc">shielded</text>
<text x="695.0" y="645.6800000000001" text-anchor="middle" font-family="Inter Tight, Arial, sans-serif" font-size="22" font-weight="650" fill="#8aa286">note</text>
<line x1="790" y1="632" x2="900" y2="632" stroke="#b17aff" stroke-width="3" marker-end="url(#arrow-purple)"/>
<rect x="920" y="598" width="190" height="68" rx="14" fill="#120b1d" stroke="#b17aff" stroke-width="2.5"/>
<text x="1015.0" y="618.08" text-anchor="middle" font-family="Inter Tight, Arial, sans-serif" font-size="24" font-weight="800" fill="#ddffdc">private</text>
<text x="1015.0" y="645.6800000000001" text-anchor="middle" font-family="Inter Tight, Arial, sans-serif" font-size="22" font-weight="650" fill="#8aa286">swap</text>
<line x1="1110" y1="632" x2="1220" y2="632" stroke="#ffd75e" stroke-width="3" marker-end="url(#arrow-amber)"/>
<rect x="1240" y="598" width="190" height="68" rx="14" fill="#151006" stroke="#ffd75e" stroke-width="2.5"/>
<text x="1335.0" y="618.08" text-anchor="middle" font-family="Inter Tight, Arial, sans-serif" font-size="24" font-weight="800" fill="#ddffdc">public</text>
<text x="1335.0" y="645.6800000000001" text-anchor="middle" font-family="Inter Tight, Arial, sans-serif" font-size="22" font-weight="650" fill="#8aa286">exit</text>
<text x="800" y="790" text-anchor="middle" font-family="Inter Tight, Arial, sans-serif" font-size="34" font-weight="700" fill="#ddffdc">Every claim traces to an epoch, packet, proof, or receipt.</text>
</svg>