<svg xmlns="http://www.w3.org/2000/svg" width="1600" height="900" viewBox="0 0 1600 900" role="img" aria-label="12 / Private Egress">
<defs>
  <marker id="arrow-mint" markerWidth="12" markerHeight="12" refX="10" refY="6" orient="auto"><path d="M2 2 L10 6 L2 10 Z" fill="#7fee64"/></marker>
  <marker id="arrow-cyan" markerWidth="12" markerHeight="12" refX="10" refY="6" orient="auto"><path d="M2 2 L10 6 L2 10 Z" fill="#4fc3ff"/></marker>
  <marker id="arrow-amber" markerWidth="12" markerHeight="12" refX="10" refY="6" orient="auto"><path d="M2 2 L10 6 L2 10 Z" fill="#ffd166"/></marker>
  <marker id="arrow-red" markerWidth="12" markerHeight="12" refX="10" refY="6" orient="auto"><path d="M2 2 L10 6 L2 10 Z" fill="#ff6868"/></marker>
  <marker id="arrow-gray" markerWidth="12" markerHeight="12" refX="10" refY="6" orient="auto"><path d="M2 2 L10 6 L2 10 Z" fill="#6f7b70"/></marker>
  <filter id="glow"><feGaussianBlur stdDeviation="3" result="b"/><feMerge><feMergeNode in="b"/><feMergeNode in="SourceGraphic"/></feMerge></filter>
  <pattern id="grid" width="40" height="40" patternUnits="userSpaceOnUse"><path d="M40 0H0V40" fill="none" stroke="#0d1c11" stroke-width="1" opacity="0.45"/></pattern>
</defs>
<rect width="1600" height="900" fill="#030604"/>
<rect width="1600" height="900" fill="url(#grid)" opacity="0.55"/>
<rect x="28" y="26" width="1544" height="848" rx="24" fill="none" stroke="#23402a" stroke-width="2"/>
<text x="60" y="62" fill="#ddffdc" font-family="Inter, Arial, sans-serif" font-size="28" font-weight="700" text-anchor="start" opacity="1">12 / Private Egress</text><line x1="60" y1="86" x2="1540" y2="86" stroke="#23402a" stroke-width="2" opacity="1"/><rect x="80" y="155" width="390" height="560" rx="16" fill="#050805" stroke="#b18cff" stroke-width="2" stroke-dasharray="12 9" opacity="0.92"/><text x="98" y="183" fill="#b18cff" font-family="IBM Plex Mono, ui-monospace, SFMono-Regular, Menlo, monospace" font-size="16" font-weight="700" text-anchor="start" opacity="1">Private Orchard note</text><rect x="560" y="155" width="410" height="560" rx="16" fill="#050805" stroke="#ffd166" stroke-width="2" opacity="0.92"/><text x="578" y="183" fill="#ffd166" font-family="IBM Plex Mono, ui-monospace, SFMono-Regular, Menlo, monospace" font-size="16" font-weight="700" text-anchor="start" opacity="1">Egress proof</text><rect x="1060" y="155" width="420" height="560" rx="16" fill="#050805" stroke="#4fc3ff" stroke-width="2" opacity="0.92"/><text x="1078" y="183" fill="#4fc3ff" font-family="IBM Plex Mono, ui-monospace, SFMono-Regular, Menlo, monospace" font-size="16" font-weight="700" text-anchor="start" opacity="1">Public exit artifact</text><rect x="130" y="230" width="250" height="55" rx="18" fill="#110b18" stroke="#b18cff" stroke-width="2" opacity="1"/><text x="148" y="264" fill="#ddffdc" font-family="Inter, Arial, sans-serif" font-size="20" font-weight="700" opacity="1"><tspan x="148" dy="0">note owner</tspan></text><rect x="130" y="322" width="250" height="55" rx="18" fill="#110b18" stroke="#b18cff" stroke-width="2" opacity="1"/><text x="148" y="356" fill="#ddffdc" font-family="Inter, Arial, sans-serif" font-size="20" font-weight="700" opacity="1"><tspan x="148" dy="0">note opening</tspan></text><rect x="130" y="414" width="250" height="55" rx="18" fill="#110b18" stroke="#b18cff" stroke-width="2" opacity="1"/><text x="148" y="448" fill="#ddffdc" font-family="Inter, Arial, sans-serif" font-size="20" font-weight="700" opacity="1"><tspan x="148" dy="0">wallet secret</tspan></text><rect x="130" y="506" width="250" height="55" rx="18" fill="#110b18" stroke="#b18cff" stroke-width="2" opacity="1"/><text x="148" y="540" fill="#ddffdc" font-family="Inter, Arial, sans-serif" font-size="20" font-weight="700" opacity="1"><tspan x="148" dy="0">hidden path</tspan></text><rect x="620" y="225" width="290" height="34" rx="17" fill="#071107" stroke="#ffd166" stroke-width="1.5"/><text x="765.0" y="248" fill="#ffd166" font-family="IBM Plex Mono, ui-monospace, SFMono-Regular, Menlo, monospace" font-size="14" font-weight="700" text-anchor="middle" opacity="1">valid note</text><rect x="620" y="297" width="290" height="34" rx="17" fill="#071107" stroke="#ffd166" stroke-width="1.5"/><text x="765.0" y="320" fill="#ffd166" font-family="IBM Plex Mono, ui-monospace, SFMono-Regular, Menlo, monospace" font-size="14" font-weight="700" text-anchor="middle" opacity="1">unspent nullifier</text><rect x="620" y="369" width="290" height="34" rx="17" fill="#071107" stroke="#ffd166" stroke-width="1.5"/><text x="765.0" y="392" fill="#ffd166" font-family="IBM Plex Mono, ui-monospace, SFMono-Regular, Menlo, monospace" font-size="14" font-weight="700" text-anchor="middle" opacity="1">authorized owner</text><rect x="620" y="441" width="290" height="34" rx="17" fill="#071107" stroke="#ffd166" stroke-width="1.5"/><text x="765.0" y="464" fill="#ffd166" font-family="IBM Plex Mono, ui-monospace, SFMono-Regular, Menlo, monospace" font-size="14" font-weight="700" text-anchor="middle" opacity="1">amount / asset matches</text><rect x="620" y="513" width="290" height="34" rx="17" fill="#071107" stroke="#ffd166" stroke-width="1.5"/><text x="765.0" y="536" fill="#ffd166" font-family="IBM Plex Mono, ui-monospace, SFMono-Regular, Menlo, monospace" font-size="14" font-weight="700" text-anchor="middle" opacity="1">destination allowed</text><rect x="1110" y="220" width="260" height="42" rx="18" fill="#061018" stroke="#4fc3ff" stroke-width="2" opacity="1"/><text x="1128" y="254" fill="#ddffdc" font-family="Inter, Arial, sans-serif" font-size="18" font-weight="700" opacity="1"><tspan x="1128" dy="0">asset id</tspan></text><rect x="1110" y="284" width="260" height="42" rx="18" fill="#061018" stroke="#4fc3ff" stroke-width="2" opacity="1"/><text x="1128" y="318" fill="#ddffdc" font-family="Inter, Arial, sans-serif" font-size="18" font-weight="700" opacity="1"><tspan x="1128" dy="0">amount</tspan></text><rect x="1110" y="348" width="260" height="42" rx="18" fill="#061018" stroke="#4fc3ff" stroke-width="2" opacity="1"/><text x="1128" y="382" fill="#ddffdc" font-family="Inter, Arial, sans-serif" font-size="18" font-weight="700" opacity="1"><tspan x="1128" dy="0">destination</tspan></text><rect x="1110" y="412" width="260" height="42" rx="18" fill="#061018" stroke="#4fc3ff" stroke-width="2" opacity="1"/><text x="1128" y="446" fill="#ddffdc" font-family="Inter, Arial, sans-serif" font-size="18" font-weight="700" opacity="1"><tspan x="1128" dy="0">nullifier</tspan></text><rect x="1110" y="476" width="260" height="42" rx="18" fill="#061018" stroke="#4fc3ff" stroke-width="2" opacity="1"/><text x="1128" y="510" fill="#ddffdc" font-family="Inter, Arial, sans-serif" font-size="18" font-weight="700" opacity="1"><tspan x="1128" dy="0">proof hash</tspan></text><rect x="1110" y="540" width="260" height="42" rx="18" fill="#061018" stroke="#4fc3ff" stroke-width="2" opacity="1"/><text x="1128" y="574" fill="#ddffdc" font-family="Inter, Arial, sans-serif" font-size="18" font-weight="700" opacity="1"><tspan x="1128" dy="0">receipt id</tspan></text><line x1="380" y1="410" x2="560" y2="410" stroke="#b18cff" stroke-width="2" marker-end="url(#arrow-amber)" opacity="1"/><line x1="970" y1="410" x2="1060" y2="410" stroke="#4fc3ff" stroke-width="2" marker-end="url(#arrow-cyan)" opacity="1"/><rect x="1090" y="660" width="360" height="72" rx="18" fill="#07140a" stroke="#7fee64" stroke-width="2" opacity="1"/><text x="1108" y="694" fill="#ddffdc" font-family="Inter, Arial, sans-serif" font-size="22" font-weight="700" opacity="1"><tspan x="1108" dy="0">bridge-out / redemption</tspan></text><text x="1108" y="726" fill="#bad8b6" font-family="Inter, Arial, sans-serif" font-size="18" font-weight="500" opacity="1"><tspan x="1108" dy="0">public NAV exit -&gt; redeem -&gt;</tspan><tspan x="1108" dy="22.5">withdraw</tspan></text><line x1="1250" y1="605" x2="1250" y2="660" stroke="#7fee64" stroke-width="2" marker-end="url(#arrow-mint)" opacity="1"/><text x="90" y="800" fill="#ddffdc" font-family="Inter, Arial, sans-serif" font-size="24" font-weight="700" text-anchor="start" opacity="1">Only allowed exit fields cross the boundary; the private note opening remains hidden.</text></svg>
