<svg xmlns="http://www.w3.org/2000/svg" width="1600" height="900" viewBox="0 0 1600 900" role="img" aria-label="11 / Private Swap Circuit">
<defs>
  <marker id="arrow-mint" markerWidth="12" markerHeight="12" refX="10" refY="6" orient="auto"><path d="M2 2 L10 6 L2 10 Z" fill="#7fee64"/></marker>
  <marker id="arrow-cyan" markerWidth="12" markerHeight="12" refX="10" refY="6" orient="auto"><path d="M2 2 L10 6 L2 10 Z" fill="#4fc3ff"/></marker>
  <marker id="arrow-amber" markerWidth="12" markerHeight="12" refX="10" refY="6" orient="auto"><path d="M2 2 L10 6 L2 10 Z" fill="#ffd166"/></marker>
  <marker id="arrow-red" markerWidth="12" markerHeight="12" refX="10" refY="6" orient="auto"><path d="M2 2 L10 6 L2 10 Z" fill="#ff6868"/></marker>
  <marker id="arrow-gray" markerWidth="12" markerHeight="12" refX="10" refY="6" orient="auto"><path d="M2 2 L10 6 L2 10 Z" fill="#6f7b70"/></marker>
  <filter id="glow"><feGaussianBlur stdDeviation="3" result="b"/><feMerge><feMergeNode in="b"/><feMergeNode in="SourceGraphic"/></feMerge></filter>
  <pattern id="grid" width="40" height="40" patternUnits="userSpaceOnUse"><path d="M40 0H0V40" fill="none" stroke="#0d1c11" stroke-width="1" opacity="0.45"/></pattern>
</defs>
<rect width="1600" height="900" fill="#030604"/>
<rect width="1600" height="900" fill="url(#grid)" opacity="0.55"/>
<rect x="28" y="26" width="1544" height="848" rx="24" fill="none" stroke="#23402a" stroke-width="2"/>
<text x="60" y="62" fill="#ddffdc" font-family="Inter, Arial, sans-serif" font-size="28" font-weight="700" text-anchor="start" opacity="1">11 / Private Swap Circuit</text><line x1="60" y1="86" x2="1540" y2="86" stroke="#23402a" stroke-width="2" opacity="1"/><rect x="70" y="155" width="400" height="555" rx="16" fill="#050805" stroke="#b18cff" stroke-width="2" stroke-dasharray="12 9" opacity="0.92"/><text x="88" y="183" fill="#b18cff" font-family="IBM Plex Mono, ui-monospace, SFMono-Regular, Menlo, monospace" font-size="16" font-weight="700" text-anchor="start" opacity="1">Private inputs</text><rect x="565" y="155" width="470" height="555" rx="16" fill="#050805" stroke="#ffd166" stroke-width="2" opacity="0.92"/><text x="583" y="183" fill="#ffd166" font-family="IBM Plex Mono, ui-monospace, SFMono-Regular, Menlo, monospace" font-size="16" font-weight="700" text-anchor="start" opacity="1">Orchard swap circuit</text><rect x="1130" y="155" width="390" height="555" rx="16" fill="#050805" stroke="#b18cff" stroke-width="2" stroke-dasharray="12 9" opacity="0.92"/><text x="1148" y="183" fill="#b18cff" font-family="IBM Plex Mono, ui-monospace, SFMono-Regular, Menlo, monospace" font-size="16" font-weight="700" text-anchor="start" opacity="1">Private outputs</text><rect x="120" y="225" width="260" height="58" rx="18" fill="#110b18" stroke="#b18cff" stroke-width="2" opacity="1"/><text x="138" y="259" fill="#ddffdc" font-family="Inter, Arial, sans-serif" font-size="20" font-weight="700" opacity="1"><tspan x="138" dy="0">pfUSDC note</tspan></text><rect x="120" y="320" width="260" height="58" rx="18" fill="#110b18" stroke="#b18cff" stroke-width="2" opacity="1"/><text x="138" y="354" fill="#ddffdc" font-family="Inter, Arial, sans-serif" font-size="20" font-weight="700" opacity="1"><tspan x="138" dy="0">spend key</tspan></text><rect x="120" y="415" width="260" height="58" rx="18" fill="#110b18" stroke="#b18cff" stroke-width="2" opacity="1"/><text x="138" y="449" fill="#ddffdc" font-family="Inter, Arial, sans-serif" font-size="20" font-weight="700" opacity="1"><tspan x="138" dy="0">opening</tspan></text><rect x="120" y="510" width="260" height="58" rx="18" fill="#110b18" stroke="#b18cff" stroke-width="2" opacity="1"/><text x="138" y="544" fill="#ddffdc" font-family="Inter, Arial, sans-serif" font-size="20" font-weight="700" opacity="1"><tspan x="138" dy="0">anchor</tspan></text><rect x="640" y="225" width="320" height="34" rx="17" fill="#071107" stroke="#ffd166" stroke-width="1.5"/><text x="800.0" y="248" fill="#ffd166" font-family="IBM Plex Mono, ui-monospace, SFMono-Regular, Menlo, monospace" font-size="14" font-weight="700" text-anchor="middle" opacity="1">note ownership</text><rect x="640" y="295" width="320" height="34" rx="17" fill="#071107" stroke="#ffd166" stroke-width="1.5"/><text x="800.0" y="318" fill="#ffd166" font-family="IBM Plex Mono, ui-monospace, SFMono-Regular, Menlo, monospace" font-size="14" font-weight="700" text-anchor="middle" opacity="1">nullifier unique</text><rect x="640" y="365" width="320" height="34" rx="17" fill="#071107" stroke="#ffd166" stroke-width="1.5"/><text x="800.0" y="388" fill="#ffd166" font-family="IBM Plex Mono, ui-monospace, SFMono-Regular, Menlo, monospace" font-size="14" font-weight="700" text-anchor="middle" opacity="1">asset exchange allowed</text><rect x="640" y="435" width="320" height="34" rx="17" fill="#071107" stroke="#ffd166" stroke-width="1.5"/><text x="800.0" y="458" fill="#ffd166" font-family="IBM Plex Mono, ui-monospace, SFMono-Regular, Menlo, monospace" font-size="14" font-weight="700" text-anchor="middle" opacity="1">value conserved</text><rect x="640" y="505" width="320" height="34" rx="17" fill="#071107" stroke="#ffd166" stroke-width="1.5"/><text x="800.0" y="528" fill="#ffd166" font-family="IBM Plex Mono, ui-monospace, SFMono-Regular, Menlo, monospace" font-size="14" font-weight="700" text-anchor="middle" opacity="1">output commitments valid</text><rect x="1190" y="260" width="250" height="80" rx="18" fill="#110b18" stroke="#b18cff" stroke-width="2" opacity="1"/><text x="1208" y="294" fill="#ddffdc" font-family="Inter, Arial, sans-serif" font-size="24" font-weight="700" opacity="1"><tspan x="1208" dy="0">NAVCoin note</tspan></text><rect x="1190" y="420" width="250" height="80" rx="18" fill="#110b18" stroke="#b18cff" stroke-width="2" opacity="1"/><text x="1208" y="454" fill="#ddffdc" font-family="Inter, Arial, sans-serif" font-size="24" font-weight="700" opacity="1"><tspan x="1208" dy="0">change note</tspan></text><line x1="380" y1="415" x2="565" y2="415" stroke="#b18cff" stroke-width="2" marker-end="url(#arrow-cyan)" opacity="1"/><line x1="1035" y1="415" x2="1190" y2="300" stroke="#b18cff" stroke-width="2" marker-end="url(#arrow-cyan)" opacity="1"/><line x1="1035" y1="415" x2="1190" y2="460" stroke="#b18cff" stroke-width="2" marker-end="url(#arrow-cyan)" opacity="1"/><rect x="570" y="650" width="460" height="75" rx="18" fill="#061018" stroke="#4fc3ff" stroke-width="2" opacity="1"/><text x="588" y="684" fill="#ddffdc" font-family="Inter, Arial, sans-serif" font-size="22" font-weight="700" opacity="1"><tspan x="588" dy="0">Public verification</tspan></text><text x="588" y="716" fill="#bad8b6" font-family="Inter, Arial, sans-serif" font-size="18" font-weight="500" opacity="1"><tspan x="588" dy="0">proof + nullifier + anchor/root -&gt; validator</tspan><tspan x="588" dy="22.5">verifies</tspan></text><line x1="800" y1="575" x2="800" y2="650" stroke="#4fc3ff" stroke-width="2" marker-end="url(#arrow-cyan)" opacity="1"/><text x="90" y="795" fill="#ddffdc" font-family="Inter, Arial, sans-serif" font-size="24" font-weight="700" text-anchor="start" opacity="1">Validators see proof validity and nullifier uniqueness, not the wallet path.</text></svg>
