<svg xmlns="http://www.w3.org/2000/svg" width="1600" height="900" viewBox="0 0 1600 900" role="img" aria-label="04 / PFTL Finalizes A NAV Epoch">
<defs>
  <marker id="arrow-mint" markerWidth="12" markerHeight="12" refX="10" refY="6" orient="auto"><path d="M2 2 L10 6 L2 10 Z" fill="#7fee64"/></marker>
  <marker id="arrow-cyan" markerWidth="12" markerHeight="12" refX="10" refY="6" orient="auto"><path d="M2 2 L10 6 L2 10 Z" fill="#4fc3ff"/></marker>
  <marker id="arrow-amber" markerWidth="12" markerHeight="12" refX="10" refY="6" orient="auto"><path d="M2 2 L10 6 L2 10 Z" fill="#ffd166"/></marker>
  <marker id="arrow-red" markerWidth="12" markerHeight="12" refX="10" refY="6" orient="auto"><path d="M2 2 L10 6 L2 10 Z" fill="#ff6868"/></marker>
  <marker id="arrow-gray" markerWidth="12" markerHeight="12" refX="10" refY="6" orient="auto"><path d="M2 2 L10 6 L2 10 Z" fill="#6f7b70"/></marker>
  <filter id="glow"><feGaussianBlur stdDeviation="3" result="b"/><feMerge><feMergeNode in="b"/><feMergeNode in="SourceGraphic"/></feMerge></filter>
  <pattern id="grid" width="40" height="40" patternUnits="userSpaceOnUse"><path d="M40 0H0V40" fill="none" stroke="#0d1c11" stroke-width="1" opacity="0.45"/></pattern>
</defs>
<rect width="1600" height="900" fill="#030604"/>
<rect width="1600" height="900" fill="url(#grid)" opacity="0.55"/>
<rect x="28" y="26" width="1544" height="848" rx="24" fill="none" stroke="#23402a" stroke-width="2"/>
<text x="60" y="62" fill="#ddffdc" font-family="Inter, Arial, sans-serif" font-size="28" font-weight="700" text-anchor="start" opacity="1">04 / PFTL Finalizes A NAV Epoch</text><line x1="60" y1="86" x2="1540" y2="86" stroke="#23402a" stroke-width="2" opacity="1"/><rect x="90" y="230" width="280" height="185" rx="18" fill="#07110a" stroke="#7fee64" stroke-width="2" opacity="1"/><text x="108" y="264" fill="#ddffdc" font-family="Inter, Arial, sans-serif" font-size="22" font-weight="700" opacity="1"><tspan x="108" dy="0">Reserve packet</tspan></text><text x="108" y="296" fill="#bad8b6" font-family="Inter, Arial, sans-serif" font-size="16" font-weight="500" opacity="1"><tspan x="108" dy="0">proof hash</tspan><tspan x="108" dy="20.0">leg totals</tspan><tspan x="108" dy="20.0">timestamp</tspan><tspan x="108" dy="20.0">policy version</tspan></text><line x1="370" y1="322" x2="475" y2="322" stroke="#7fee64" stroke-width="2" marker-end="url(#arrow-mint)" opacity="1"/><rect x="475" y="140" width="430" height="365" rx="18" fill="#0f0d05" stroke="#ffd166" stroke-width="2" opacity="1"/><text x="493" y="174" fill="#ddffdc" font-family="Inter, Arial, sans-serif" font-size="24" font-weight="700" opacity="1"><tspan x="493" dy="0">Validator verification</tspan></text><text x="493" y="206" fill="#bad8b6" font-family="Inter, Arial, sans-serif" font-size="21" font-weight="500" opacity="1"><tspan x="493" dy="0">1 submit packet</tspan><tspan x="493" dy="26.25">2 verify proof hash</tspan><tspan x="493" dy="26.25">3 check arithmetic</tspan><tspan x="493" dy="26.25">4 check freshness</tspan><tspan x="493" dy="26.25">5 validator votes</tspan><tspan x="493" dy="26.25">6 epoch finalized</tspan></text><rect x="500" y="560" width="95" height="54" rx="18" fill="#061018" stroke="#4fc3ff" stroke-width="2" opacity="1"/><text x="518" y="594" fill="#ddffdc" font-family="Inter, Arial, sans-serif" font-size="18" font-weight="700" opacity="1"><tspan x="518" dy="0">V0</tspan></text><line x1="547" y1="614" x2="690" y2="505" stroke="#4fc3ff" stroke-width="1.5" stroke-dasharray="10 8" opacity="1"/><rect x="610" y="585" width="95" height="54" rx="18" fill="#061018" stroke="#4fc3ff" stroke-width="2" opacity="1"/><text x="628" y="619" fill="#ddffdc" font-family="Inter, Arial, sans-serif" font-size="18" font-weight="700" opacity="1"><tspan x="628" dy="0">V1</tspan></text><line x1="657" y1="639" x2="690" y2="505" stroke="#4fc3ff" stroke-width="1.5" stroke-dasharray="10 8" opacity="1"/><rect x="720" y="585" width="95" height="54" rx="18" fill="#061018" stroke="#4fc3ff" stroke-width="2" opacity="1"/><text x="738" y="619" fill="#ddffdc" font-family="Inter, Arial, sans-serif" font-size="18" font-weight="700" opacity="1"><tspan x="738" dy="0">V2</tspan></text><line x1="767" y1="639" x2="690" y2="505" stroke="#4fc3ff" stroke-width="1.5" stroke-dasharray="10 8" opacity="1"/><rect x="830" y="560" width="95" height="54" rx="18" fill="#061018" stroke="#4fc3ff" stroke-width="2" opacity="1"/><text x="848" y="594" fill="#ddffdc" font-family="Inter, Arial, sans-serif" font-size="18" font-weight="700" opacity="1"><tspan x="848" dy="0">V3</tspan></text><line x1="877" y1="614" x2="690" y2="505" stroke="#4fc3ff" stroke-width="1.5" stroke-dasharray="10 8" opacity="1"/><rect x="590" y="95" width="95" height="54" rx="18" fill="#061018" stroke="#4fc3ff" stroke-width="2" opacity="1"/><text x="608" y="129" fill="#ddffdc" font-family="Inter, Arial, sans-serif" font-size="18" font-weight="700" opacity="1"><tspan x="608" dy="0">V4</tspan></text><line x1="637" y1="149" x2="690" y2="140" stroke="#4fc3ff" stroke-width="1.5" stroke-dasharray="10 8" opacity="1"/><rect x="790" y="95" width="95" height="54" rx="18" fill="#061018" stroke="#4fc3ff" stroke-width="2" opacity="1"/><text x="808" y="129" fill="#ddffdc" font-family="Inter, Arial, sans-serif" font-size="18" font-weight="700" opacity="1"><tspan x="808" dy="0">V5</tspan></text><line x1="837" y1="149" x2="690" y2="140" stroke="#4fc3ff" stroke-width="1.5" stroke-dasharray="10 8" opacity="1"/><circle cx="690" cy="322" r="210" fill="none" stroke="#4fc3ff" stroke-width="3" stroke-dasharray="10 10" opacity="0.9"/><rect x="582" y="520" width="235" height="34" rx="17" fill="#071107" stroke="#4fc3ff" stroke-width="1.5"/><text x="699.5" y="543" fill="#4fc3ff" font-family="IBM Plex Mono, ui-monospace, SFMono-Regular, Menlo, monospace" font-size="14" font-weight="700" text-anchor="middle" opacity="1">quorum certificate</text><line x1="905" y1="322" x2="1010" y2="322" stroke="#ffd166" stroke-width="2" marker-end="url(#arrow-amber)" opacity="1"/><rect x="1010" y="170" width="460" height="310" rx="18" fill="#07140a" stroke="#7fee64" stroke-width="2" opacity="1"/><text x="1028" y="204" fill="#ddffdc" font-family="Inter, Arial, sans-serif" font-size="26" font-weight="700" opacity="1"><tspan x="1028" dy="0">Finalized NAV epoch</tspan></text><text x="1028" y="236" fill="#bad8b6" font-family="Inter, Arial, sans-serif" font-size="19" font-weight="500" opacity="1"><tspan x="1028" dy="0">epoch id</tspan><tspan x="1028" dy="23.75">asset id</tspan><tspan x="1028" dy="23.75">verified net assets</tspan><tspan x="1028" dy="23.75">supply denominator</tspan><tspan x="1028" dy="23.75">NAV/unit</tspan><tspan x="1028" dy="23.75">timestamp</tspan><tspan x="1028" dy="23.75">freshness deadline</tspan><tspan x="1028" dy="23.75">proof hash</tspan></text><text x="90" y="785" fill="#ddffdc" font-family="Inter, Arial, sans-serif" font-size="25" font-weight="700" text-anchor="start" opacity="1">Evidence becomes protocol state only after validator verification and finality.</text></svg>
