<svg xmlns="http://www.w3.org/2000/svg" width="1600" height="900" viewBox="0 0 1600 900" role="img" aria-label="10 / Public Balance To Private Note">
<defs>
  <marker id="arrow-mint" markerWidth="12" markerHeight="12" refX="10" refY="6" orient="auto"><path d="M2 2 L10 6 L2 10 Z" fill="#7fee64"/></marker>
  <marker id="arrow-cyan" markerWidth="12" markerHeight="12" refX="10" refY="6" orient="auto"><path d="M2 2 L10 6 L2 10 Z" fill="#4fc3ff"/></marker>
  <marker id="arrow-amber" markerWidth="12" markerHeight="12" refX="10" refY="6" orient="auto"><path d="M2 2 L10 6 L2 10 Z" fill="#ffd166"/></marker>
  <marker id="arrow-red" markerWidth="12" markerHeight="12" refX="10" refY="6" orient="auto"><path d="M2 2 L10 6 L2 10 Z" fill="#ff6868"/></marker>
  <marker id="arrow-gray" markerWidth="12" markerHeight="12" refX="10" refY="6" orient="auto"><path d="M2 2 L10 6 L2 10 Z" fill="#6f7b70"/></marker>
  <filter id="glow"><feGaussianBlur stdDeviation="3" result="b"/><feMerge><feMergeNode in="b"/><feMergeNode in="SourceGraphic"/></feMerge></filter>
  <pattern id="grid" width="40" height="40" patternUnits="userSpaceOnUse"><path d="M40 0H0V40" fill="none" stroke="#0d1c11" stroke-width="1" opacity="0.45"/></pattern>
</defs>
<rect width="1600" height="900" fill="#030604"/>
<rect width="1600" height="900" fill="url(#grid)" opacity="0.55"/>
<rect x="28" y="26" width="1544" height="848" rx="24" fill="none" stroke="#23402a" stroke-width="2"/>
<text x="60" y="62" fill="#ddffdc" font-family="Inter, Arial, sans-serif" font-size="28" font-weight="700" text-anchor="start" opacity="1">10 / Public Balance To Private Note</text><line x1="60" y1="86" x2="1540" y2="86" stroke="#23402a" stroke-width="2" opacity="1"/><rect x="80" y="165" width="390" height="500" rx="16" fill="#050805" stroke="#4fc3ff" stroke-width="2" opacity="0.92"/><text x="98" y="193" fill="#4fc3ff" font-family="IBM Plex Mono, ui-monospace, SFMono-Regular, Menlo, monospace" font-size="16" font-weight="700" text-anchor="start" opacity="1">Public zone</text><rect x="555" y="165" width="300" height="500" rx="16" fill="#050805" stroke="#ffd166" stroke-width="2" opacity="0.92"/><text x="573" y="193" fill="#ffd166" font-family="IBM Plex Mono, ui-monospace, SFMono-Regular, Menlo, monospace" font-size="16" font-weight="700" text-anchor="start" opacity="1">Shield action</text><rect x="940" y="165" width="560" height="500" rx="16" fill="#050805" stroke="#b18cff" stroke-width="2" stroke-dasharray="12 9" opacity="0.92"/><text x="958" y="193" fill="#b18cff" font-family="IBM Plex Mono, ui-monospace, SFMono-Regular, Menlo, monospace" font-size="16" font-weight="700" text-anchor="start" opacity="1">Orchard private zone</text><rect x="130" y="250" width="260" height="85" rx="18" fill="#061018" stroke="#4fc3ff" stroke-width="2" opacity="1"/><text x="148" y="284" fill="#ddffdc" font-family="Inter, Arial, sans-serif" font-size="22" font-weight="700" opacity="1"><tspan x="148" dy="0">public NAV balance</tspan></text><rect x="130" y="395" width="260" height="85" rx="18" fill="#061018" stroke="#4fc3ff" stroke-width="2" opacity="1"/><text x="148" y="429" fill="#ddffdc" font-family="Inter, Arial, sans-serif" font-size="22" font-weight="700" opacity="1"><tspan x="148" dy="0">deposit tx</tspan></text><text x="148" y="461" fill="#bad8b6" font-family="Inter, Arial, sans-serif" font-size="16" font-weight="500" opacity="1"><tspan x="148" dy="0">asset id + amount</tspan></text><line x1="390" y1="437" x2="555" y2="330" stroke="#ffd166" stroke-width="2" marker-end="url(#arrow-amber)" opacity="1"/><rect x="595" y="250" width="220" height="85" rx="18" fill="#141006" stroke="#ffd166" stroke-width="2" opacity="1"/><text x="613" y="284" fill="#ddffdc" font-family="Inter, Arial, sans-serif" font-size="19" font-weight="700" opacity="1"><tspan x="613" dy="0">create note</tspan><tspan x="613" dy="23.75">commitment</tspan></text><rect x="595" y="395" width="220" height="85" rx="18" fill="#141006" stroke="#ffd166" stroke-width="2" opacity="1"/><text x="613" y="429" fill="#ddffdc" font-family="Inter, Arial, sans-serif" font-size="20" font-weight="700" opacity="1"><tspan x="613" dy="0">public receipt</tspan></text><line x1="815" y1="292" x2="980" y2="292" stroke="#b18cff" stroke-width="2" marker-end="url(#arrow-cyan)" opacity="1"/><rect x="995" y="230" width="210" height="75" rx="18" fill="#110b18" stroke="#b18cff" stroke-width="2" opacity="1"/><text x="1013" y="264" fill="#ddffdc" font-family="Inter, Arial, sans-serif" font-size="23" font-weight="700" opacity="1"><tspan x="1013" dy="0">note</tspan></text><rect x="1240" y="230" width="210" height="75" rx="18" fill="#110b18" stroke="#b18cff" stroke-width="2" opacity="1"/><text x="1258" y="264" fill="#ddffdc" font-family="Inter, Arial, sans-serif" font-size="23" font-weight="700" opacity="1"><tspan x="1258" dy="0">owner secret</tspan></text><rect x="995" y="360" width="210" height="75" rx="18" fill="#110b18" stroke="#b18cff" stroke-width="2" opacity="1"/><text x="1013" y="394" fill="#ddffdc" font-family="Inter, Arial, sans-serif" font-size="23" font-weight="700" opacity="1"><tspan x="1013" dy="0">randomness</tspan></text><rect x="1240" y="360" width="210" height="75" rx="18" fill="#110b18" stroke="#b18cff" stroke-width="2" opacity="1"/><text x="1258" y="394" fill="#ddffdc" font-family="Inter, Arial, sans-serif" font-size="23" font-weight="700" opacity="1"><tspan x="1258" dy="0">wallet view</tspan><tspan x="1258" dy="28.75">key</tspan></text><rect x="1070" y="515" width="300" height="72" rx="18" fill="#080a08" stroke="#6f7b70" stroke-width="2" stroke-dasharray="10 8" opacity="1"/><text x="1088" y="549" fill="#6f7b70" font-family="Inter, Arial, sans-serif" font-size="22" font-weight="700" opacity="1"><tspan x="1088" dy="0">nullifier</tspan></text><text x="1088" y="581" fill="#bad8b6" font-family="Inter, Arial, sans-serif" font-size="18" font-weight="500" opacity="1"><tspan x="1088" dy="0">created on spend</tspan></text><text x="90" y="775" fill="#ddffdc" font-family="Inter, Arial, sans-serif" font-size="24" font-weight="700" text-anchor="start" opacity="1">Visible: deposit and commitment. Hidden: note opening, owner, wallet-side details.</text></svg>
