<svg xmlns="http://www.w3.org/2000/svg" width="1600" height="900" viewBox="0 0 1600 900">
<rect width="1600" height="900" fill="#020604"/>
<defs><marker id="arrow-mint" viewBox="0 0 10 10" markerWidth="10" markerHeight="10" refX="9" refY="5" orient="auto" markerUnits="userSpaceOnUse"><path d="M0 0 L10 5 L0 10 Z" fill="#7fee64"/></marker><marker id="arrow-cyan" viewBox="0 0 10 10" markerWidth="10" markerHeight="10" refX="9" refY="5" orient="auto" markerUnits="userSpaceOnUse"><path d="M0 0 L10 5 L0 10 Z" fill="#22c7ff"/></marker><marker id="arrow-amber" viewBox="0 0 10 10" markerWidth="10" markerHeight="10" refX="9" refY="5" orient="auto" markerUnits="userSpaceOnUse"><path d="M0 0 L10 5 L0 10 Z" fill="#ffd75e"/></marker><marker id="arrow-purple" viewBox="0 0 10 10" markerWidth="10" markerHeight="10" refX="9" refY="5" orient="auto" markerUnits="userSpaceOnUse"><path d="M0 0 L10 5 L0 10 Z" fill="#b17aff"/></marker></defs>
<rect x="28" y="26" width="1544" height="848" rx="26" fill="#020604" stroke="#1f5f32" stroke-width="2"/>
<text x="60" y="74" font-family="IBM Plex Mono, ui-monospace, monospace" font-size="34" font-weight="800" fill="#ddffdc">14 / Complete User Path</text>
<line x1="60" y1="106" x2="1540" y2="106" stroke="#21482a" stroke-width="2"/>
<rect x="70" y="130" width="1460" height="126" rx="16" fill="#020604" stroke="#7fee64" stroke-width="2.5"/>
<text x="94" y="165" text-anchor="start" font-family="IBM Plex Mono, ui-monospace, monospace" font-size="22" font-weight="650" fill="#7fee64">reserve proof</text>
<rect x="70" y="285" width="1460" height="126" rx="16" fill="#020604" stroke="#7fee64" stroke-width="2.5"/>
<text x="94" y="320" text-anchor="start" font-family="IBM Plex Mono, ui-monospace, monospace" font-size="22" font-weight="650" fill="#7fee64">PFTL public state</text>
<rect x="70" y="440" width="1460" height="126" rx="16" fill="#020604" stroke="#b17aff" stroke-width="2.5" stroke-dasharray="10 10"/>
<text x="94" y="475" text-anchor="start" font-family="IBM Plex Mono, ui-monospace, monospace" font-size="22" font-weight="650" fill="#b17aff">Orchard privacy</text>
<rect x="70" y="595" width="1460" height="126" rx="16" fill="#020604" stroke="#22c7ff" stroke-width="2.5"/>
<text x="94" y="630" text-anchor="start" font-family="IBM Plex Mono, ui-monospace, monospace" font-size="22" font-weight="650" fill="#22c7ff">Ethereum / Uniswap venue</text>
<rect x="125" y="176" width="205" height="68" rx="14" fill="#07140a" stroke="#7fee64" stroke-width="2.5"/>
<text x="227.5" y="207.0" text-anchor="middle" font-family="Inter Tight, Arial, sans-serif" font-size="26" font-weight="800" fill="#ddffdc">fresh NAV</text>
<text x="227.5" y="239.0" text-anchor="middle" font-family="Inter Tight, Arial, sans-serif" font-size="18" font-weight="650" fill="#8aa286">proof epoch</text>
<rect x="150" y="326" width="210" height="68" rx="14" fill="#07140a" stroke="#7fee64" stroke-width="2.5"/>
<text x="255.0" y="357.0" text-anchor="middle" font-family="Inter Tight, Arial, sans-serif" font-size="26" font-weight="800" fill="#ddffdc">bridge USDC</text>
<text x="255.0" y="389.0" text-anchor="middle" font-family="Inter Tight, Arial, sans-serif" font-size="18" font-weight="650" fill="#8aa286">pfUSDC minted</text>
<rect x="1215" y="326" width="220" height="68" rx="14" fill="#151006" stroke="#ffd75e" stroke-width="2.5"/>
<text x="1325.0" y="357.0" text-anchor="middle" font-family="Inter Tight, Arial, sans-serif" font-size="26" font-weight="800" fill="#ddffdc">lock a651</text>
<text x="1325.0" y="389.0" text-anchor="middle" font-family="Inter Tight, Arial, sans-serif" font-size="18" font-weight="650" fill="#8aa286">atomic receipt</text>
<path d="M225 244 C225 280 240 302 255 326" fill="none" stroke="#7fee64" stroke-width="3" marker-end="url(#arrow-mint)"/>
<rect x="150" y="480" width="210" height="68" rx="14" fill="#120b1d" stroke="#b17aff" stroke-width="2.5" stroke-dasharray="9 8"/>
<text x="255.0" y="511.0" text-anchor="middle" font-family="Inter Tight, Arial, sans-serif" font-size="26" font-weight="800" fill="#ddffdc">shield</text>
<text x="255.0" y="543.0" text-anchor="middle" font-family="Inter Tight, Arial, sans-serif" font-size="18" font-weight="650" fill="#8aa286">pfUSDC note</text>
<rect x="500" y="480" width="230" height="68" rx="14" fill="#120b1d" stroke="#b17aff" stroke-width="2.5" stroke-dasharray="9 8"/>
<text x="615.0" y="511.0" text-anchor="middle" font-family="Inter Tight, Arial, sans-serif" font-size="26" font-weight="800" fill="#ddffdc">private swap</text>
<text x="615.0" y="543.0" text-anchor="middle" font-family="Inter Tight, Arial, sans-serif" font-size="18" font-weight="650" fill="#8aa286">a651 note</text>
<rect x="850" y="480" width="230" height="68" rx="14" fill="#120b1d" stroke="#b17aff" stroke-width="2.5" stroke-dasharray="9 8"/>
<text x="965.0" y="511.0" text-anchor="middle" font-family="Inter Tight, Arial, sans-serif" font-size="23" font-weight="800" fill="#ddffdc">private egress</text>
<text x="965.0" y="543.0" text-anchor="middle" font-family="Inter Tight, Arial, sans-serif" font-size="18" font-weight="650" fill="#8aa286">public a651</text>
<line x1="360" y1="514" x2="500" y2="514" stroke="#b17aff" stroke-width="3" marker-end="url(#arrow-purple)"/>
<line x1="730" y1="514" x2="850" y2="514" stroke="#b17aff" stroke-width="3" marker-end="url(#arrow-purple)"/>
<path d="M255 394 C255 430 255 455 255 480" fill="none" stroke="#b17aff" stroke-width="3" marker-end="url(#arrow-purple)"/>
<path d="M965 480 C1015 420 1135 386 1215 360" fill="none" stroke="#ffd75e" stroke-width="3" marker-end="url(#arrow-amber)"/>
<rect x="450" y="641" width="230" height="68" rx="14" fill="#061018" stroke="#22c7ff" stroke-width="2.5"/>
<text x="565.0" y="672.0" text-anchor="middle" font-family="Inter Tight, Arial, sans-serif" font-size="26" font-weight="800" fill="#ddffdc">verify lock</text>
<text x="565.0" y="704.0" text-anchor="middle" font-family="Inter Tight, Arial, sans-serif" font-size="18" font-weight="650" fill="#8aa286">PFTL finality</text>
<rect x="790" y="641" width="230" height="68" rx="14" fill="#061018" stroke="#22c7ff" stroke-width="2.5"/>
<text x="905.0" y="672.0" text-anchor="middle" font-family="Inter Tight, Arial, sans-serif" font-size="26" font-weight="800" fill="#ddffdc">release wA651</text>
<text x="905.0" y="704.0" text-anchor="middle" font-family="Inter Tight, Arial, sans-serif" font-size="18" font-weight="650" fill="#8aa286">ERC-20 claim</text>
<rect x="1130" y="641" width="230" height="68" rx="14" fill="#061018" stroke="#22c7ff" stroke-width="2.5"/>
<text x="1245.0" y="672.0" text-anchor="middle" font-family="Inter Tight, Arial, sans-serif" font-size="26" font-weight="800" fill="#ddffdc">Uniswap pool</text>
<text x="1245.0" y="704.0" text-anchor="middle" font-family="Inter Tight, Arial, sans-serif" font-size="18" font-weight="650" fill="#8aa286">a651 / USDC</text>
<path d="M1325 394 C1275 560 840 585 565 641" fill="none" stroke="#22c7ff" stroke-width="3" marker-end="url(#arrow-cyan)"/>
<line x1="680" y1="675" x2="790" y2="675" stroke="#22c7ff" stroke-width="3" marker-end="url(#arrow-cyan)"/>
<line x1="1020" y1="675" x2="1130" y2="675" stroke="#22c7ff" stroke-width="3" marker-end="url(#arrow-cyan)"/>
<text x="800" y="805" text-anchor="middle" font-family="Inter Tight, Arial, sans-serif" font-size="30" font-weight="800" fill="#ddffdc">User flow: USDC -&gt; PFTL -&gt; private a651 -&gt; atomic handoff -&gt; Uniswap-side a651.</text>
</svg>