<svg xmlns="http://www.w3.org/2000/svg" width="1600" height="900" viewBox="0 0 1600 900" role="img" aria-label="01 / PFTL Decides What Exists">
<defs>
  <marker id="arrow-mint" markerWidth="12" markerHeight="12" refX="10" refY="6" orient="auto"><path d="M2 2 L10 6 L2 10 Z" fill="#7fee64"/></marker>
  <marker id="arrow-cyan" markerWidth="12" markerHeight="12" refX="10" refY="6" orient="auto"><path d="M2 2 L10 6 L2 10 Z" fill="#4fc3ff"/></marker>
  <marker id="arrow-amber" markerWidth="12" markerHeight="12" refX="10" refY="6" orient="auto"><path d="M2 2 L10 6 L2 10 Z" fill="#ffd166"/></marker>
  <marker id="arrow-red" markerWidth="12" markerHeight="12" refX="10" refY="6" orient="auto"><path d="M2 2 L10 6 L2 10 Z" fill="#ff6868"/></marker>
  <marker id="arrow-gray" markerWidth="12" markerHeight="12" refX="10" refY="6" orient="auto"><path d="M2 2 L10 6 L2 10 Z" fill="#6f7b70"/></marker>
  <filter id="glow"><feGaussianBlur stdDeviation="3" result="b"/><feMerge><feMergeNode in="b"/><feMergeNode in="SourceGraphic"/></feMerge></filter>
  <pattern id="grid" width="40" height="40" patternUnits="userSpaceOnUse"><path d="M40 0H0V40" fill="none" stroke="#0d1c11" stroke-width="1" opacity="0.45"/></pattern>
</defs>
<rect width="1600" height="900" fill="#030604"/>
<rect width="1600" height="900" fill="url(#grid)" opacity="0.55"/>
<rect x="28" y="26" width="1544" height="848" rx="24" fill="none" stroke="#23402a" stroke-width="2"/>
<text x="60" y="62" fill="#ddffdc" font-family="Inter, Arial, sans-serif" font-size="28" font-weight="700" text-anchor="start" opacity="1">01 / PFTL Decides What Exists</text><line x1="60" y1="86" x2="1540" y2="86" stroke="#23402a" stroke-width="2" opacity="1"/><rect x="80" y="130" width="1440" height="230" rx="16" fill="#070907" stroke="#6f7b70" stroke-width="2" opacity="0.92"/><text x="98" y="158" fill="#6f7b70" font-family="IBM Plex Mono, ui-monospace, SFMono-Regular, Menlo, monospace" font-size="16" font-weight="700" text-anchor="start" opacity="1">Retired demo</text><rect x="80" y="430" width="1440" height="310" rx="16" fill="#061109" stroke="#7fee64" stroke-width="2" opacity="0.92"/><text x="98" y="458" fill="#7fee64" font-family="IBM Plex Mono, ui-monospace, SFMono-Regular, Menlo, monospace" font-size="16" font-weight="700" text-anchor="start" opacity="1">Canonical path</text><rect x="130" y="200" width="190" height="80" rx="18" fill="#111511" stroke="#6f7b70" stroke-width="2" opacity="0.75"/><text x="148" y="234" fill="#6f7b70" font-family="Inter, Arial, sans-serif" font-size="18" font-weight="700" opacity="1"><tspan x="148" dy="0">ETH a651</tspan><tspan x="148" dy="22.5">token</tspan></text><rect x="385" y="200" width="190" height="80" rx="18" fill="#111511" stroke="#6f7b70" stroke-width="2" opacity="0.75"/><text x="403" y="234" fill="#6f7b70" font-family="Inter, Arial, sans-serif" font-size="18" font-weight="700" opacity="1"><tspan x="403" dy="0">ETH proof</tspan><tspan x="403" dy="22.5">adapter</tspan></text><rect x="640" y="200" width="190" height="80" rx="18" fill="#111511" stroke="#6f7b70" stroke-width="2" opacity="0.75"/><text x="658" y="234" fill="#6f7b70" font-family="Inter, Arial, sans-serif" font-size="18" font-weight="700" opacity="1"><tspan x="658" dy="0">Uniswap pool</tspan></text><line x1="320" y1="240" x2="385" y2="240" stroke="#6f7b70" stroke-width="2" marker-end="url(#arrow-gray)" opacity="0.7"/><line x1="575" y1="240" x2="640" y2="240" stroke="#6f7b70" stroke-width="2" marker-end="url(#arrow-gray)" opacity="0.7"/><polygon points="930,199.0 1015.0,240 930,281.0 845.0,240" fill="#171306" stroke="#ff6868" stroke-width="2"/><text x="857.0" y="234" fill="#ff6868" font-family="IBM Plex Mono, ui-monospace, SFMono-Regular, Menlo, monospace" font-size="14" font-weight="700" opacity="1"><tspan x="857.0" dy="0">venue-adjacent</tspan><tspan x="857.0" dy="17.5">truth</tspan></text><line x1="830" y1="240" x2="845" y2="240" stroke="#ff6868" stroke-width="2" marker-end="url(#arrow-red)" opacity="1"/><rect x="1100" y="222" width="250" height="34" rx="17" fill="#071107" stroke="#6f7b70" stroke-width="1.5"/><text x="1225.0" y="245" fill="#6f7b70" font-family="IBM Plex Mono, ui-monospace, SFMono-Regular, Menlo, monospace" font-size="14" font-weight="700" text-anchor="middle" opacity="1">useful demo, not final</text><rect x="130" y="535" width="190" height="115" rx="18" fill="#07140a" stroke="#7fee64" stroke-width="2" opacity="1"/><text x="148" y="569" fill="#ddffdc" font-family="Inter, Arial, sans-serif" font-size="18" font-weight="700" opacity="1"><tspan x="148" dy="0">PFTL reserve</tspan><tspan x="148" dy="22.5">proof</tspan></text><text x="148" y="601" fill="#bad8b6" font-family="Inter, Arial, sans-serif" font-size="14" font-weight="500" opacity="1"><tspan x="148" dy="0">evidence hash</tspan><tspan x="148" dy="17.5">policy version</tspan></text><line x1="320" y1="592" x2="365" y2="592" stroke="#7fee64" stroke-width="2" marker-end="url(#arrow-mint)" opacity="1"/><rect x="365" y="535" width="190" height="115" rx="18" fill="#07140a" stroke="#7fee64" stroke-width="2" opacity="1"/><text x="383" y="569" fill="#ddffdc" font-family="Inter, Arial, sans-serif" font-size="18" font-weight="700" opacity="1"><tspan x="383" dy="0">PFTL supply</tspan><tspan x="383" dy="22.5">ledger</tspan></text><text x="383" y="601" fill="#bad8b6" font-family="Inter, Arial, sans-serif" font-size="14" font-weight="500" opacity="1"><tspan x="383" dy="0">official supply</tspan><tspan x="383" dy="17.5">asset state</tspan></text><line x1="555" y1="592" x2="600" y2="592" stroke="#7fee64" stroke-width="2" marker-end="url(#arrow-mint)" opacity="1"/><rect x="600" y="535" width="190" height="115" rx="18" fill="#07140a" stroke="#7fee64" stroke-width="2" opacity="1"/><text x="618" y="569" fill="#ddffdc" font-family="Inter, Arial, sans-serif" font-size="18" font-weight="700" opacity="1"><tspan x="618" dy="0">PFTL bridge</tspan><tspan x="618" dy="22.5">receipt</tspan></text><text x="618" y="601" fill="#bad8b6" font-family="Inter, Arial, sans-serif" font-size="14" font-weight="500" opacity="1"><tspan x="618" dy="0">finalized packet</tspan><tspan x="618" dy="17.5">nonce + fields</tspan></text><line x1="790" y1="592" x2="870" y2="592" stroke="#7fee64" stroke-width="2" marker-end="url(#arrow-cyan)" opacity="1"/><rect x="870" y="535" width="190" height="115" rx="18" fill="#07140a" stroke="#4fc3ff" stroke-width="2" opacity="1"/><text x="888" y="569" fill="#ddffdc" font-family="Inter, Arial, sans-serif" font-size="18" font-weight="700" opacity="1"><tspan x="888" dy="0">wrapped ETH</tspan><tspan x="888" dy="22.5">token</tspan></text><text x="888" y="601" fill="#bad8b6" font-family="Inter, Arial, sans-serif" font-size="14" font-weight="500" opacity="1"><tspan x="888" dy="0">venue</tspan><tspan x="888" dy="17.5">representation</tspan><tspan x="888" dy="17.5">not source ledger</tspan></text><line x1="1060" y1="592" x2="1140" y2="592" stroke="#4fc3ff" stroke-width="2" marker-end="url(#arrow-cyan)" opacity="1"/><rect x="1140" y="535" width="190" height="115" rx="18" fill="#07140a" stroke="#4fc3ff" stroke-width="2" opacity="1"/><text x="1158" y="569" fill="#ddffdc" font-family="Inter, Arial, sans-serif" font-size="18" font-weight="700" opacity="1"><tspan x="1158" dy="0">Uniswap</tspan><tspan x="1158" dy="22.5">venue</tspan></text><text x="1158" y="601" fill="#bad8b6" font-family="Inter, Arial, sans-serif" font-size="14" font-weight="500" opacity="1"><tspan x="1158" dy="0">public liquidity</tspan><tspan x="1158" dy="17.5">market price</tspan></text><line x1="825" y1="475" x2="825" y2="705" stroke="#ffd166" stroke-width="3" stroke-dasharray="10 8" opacity="1"/><text x="825" y="462" fill="#ffd166" font-family="IBM Plex Mono, ui-monospace, SFMono-Regular, Menlo, monospace" font-size="16" font-weight="700" text-anchor="middle" opacity="1">verified bridge</text><rect x="410" y="665" width="180" height="34" rx="17" fill="#071107" stroke="#7fee64" stroke-width="1.5"/><text x="500.0" y="688" fill="#7fee64" font-family="IBM Plex Mono, ui-monospace, SFMono-Regular, Menlo, monospace" font-size="14" font-weight="700" text-anchor="middle" opacity="1">official supply</text><text x="80" y="805" fill="#ddffdc" font-family="Inter, Arial, sans-serif" font-size="24" font-weight="700" text-anchor="start" opacity="1">Relationship: Ethereum may host a tradable representation; PFTL owns existence.</text></svg>
