<svg xmlns="http://www.w3.org/2000/svg" width="1600" height="900" viewBox="0 0 1600 900">
<rect width="1600" height="900" fill="#020604"/>
<defs><marker id="arrow-mint" viewBox="0 0 10 10" markerWidth="10" markerHeight="10" refX="9" refY="5" orient="auto" markerUnits="userSpaceOnUse"><path d="M0 0 L10 5 L0 10 Z" fill="#7fee64"/></marker><marker id="arrow-cyan" viewBox="0 0 10 10" markerWidth="10" markerHeight="10" refX="9" refY="5" orient="auto" markerUnits="userSpaceOnUse"><path d="M0 0 L10 5 L0 10 Z" fill="#22c7ff"/></marker><marker id="arrow-amber" viewBox="0 0 10 10" markerWidth="10" markerHeight="10" refX="9" refY="5" orient="auto" markerUnits="userSpaceOnUse"><path d="M0 0 L10 5 L0 10 Z" fill="#ffd75e"/></marker><marker id="arrow-purple" viewBox="0 0 10 10" markerWidth="10" markerHeight="10" refX="9" refY="5" orient="auto" markerUnits="userSpaceOnUse"><path d="M0 0 L10 5 L0 10 Z" fill="#b17aff"/></marker></defs>
<rect x="28" y="26" width="1544" height="848" rx="26" fill="#020604" stroke="#1f5f32" stroke-width="2"/>
<text x="60" y="74" font-family="IBM Plex Mono, ui-monospace, monospace" font-size="34" font-weight="800" fill="#ddffdc">14 / Complete Canonical Transaction</text>
<line x1="60" y1="106" x2="1540" y2="106" stroke="#21482a" stroke-width="2"/>
<rect x="70" y="130" width="1460" height="128" rx="16" fill="#020604" stroke="#7fee64" stroke-width="2.5"/>
<text x="94" y="158" text-anchor="start" font-family="IBM Plex Mono, ui-monospace, monospace" font-size="22" font-weight="650" fill="#7fee64">reserve proof</text>
<rect x="70" y="285" width="1460" height="128" rx="16" fill="#020604" stroke="#7fee64" stroke-width="2.5"/>
<text x="94" y="321" text-anchor="start" font-family="IBM Plex Mono, ui-monospace, monospace" font-size="22" font-weight="650" fill="#7fee64">PFTL canonical ledger</text>
<rect x="70" y="440" width="1460" height="128" rx="16" fill="#020604" stroke="#22c7ff" stroke-width="2.5"/>
<text x="94" y="476" text-anchor="start" font-family="IBM Plex Mono, ui-monospace, monospace" font-size="22" font-weight="650" fill="#22c7ff">Ethereum venue</text>
<rect x="70" y="595" width="1460" height="128" rx="16" fill="#020604" stroke="#b17aff" stroke-width="2.5" stroke-dasharray="10 10"/>
<text x="94" y="631" text-anchor="start" font-family="IBM Plex Mono, ui-monospace, monospace" font-size="22" font-weight="650" fill="#b17aff">Orchard privacy</text>
<rect x="145" y="176" width="210" height="74" rx="14" fill="#07140a" stroke="#7fee64" stroke-width="2.5"/>
<text x="250.0" y="211.0" text-anchor="middle" font-family="Inter Tight, Arial, sans-serif" font-size="28" font-weight="800" fill="#ddffdc">evidence</text>
<text x="250.0" y="243.0" text-anchor="middle" font-family="Inter Tight, Arial, sans-serif" font-size="18" font-weight="650" fill="#8aa286">reserve legs</text>
<rect x="455" y="176" width="210" height="74" rx="14" fill="#07140a" stroke="#7fee64" stroke-width="2.5"/>
<text x="560.0" y="211.0" text-anchor="middle" font-family="Inter Tight, Arial, sans-serif" font-size="28" font-weight="800" fill="#ddffdc">prove NAV</text>
<text x="560.0" y="243.0" text-anchor="middle" font-family="Inter Tight, Arial, sans-serif" font-size="18" font-weight="650" fill="#8aa286">proof packet</text>
<line x1="355" y1="213" x2="455" y2="213" stroke="#7fee64" stroke-width="3" marker-end="url(#arrow-mint)"/>
<rect x="310" y="321" width="230" height="74" rx="14" fill="#07140a" stroke="#7fee64" stroke-width="2.5"/>
<text x="425.0" y="356.0" text-anchor="middle" font-family="Inter Tight, Arial, sans-serif" font-size="28" font-weight="800" fill="#ddffdc">finalize</text>
<text x="425.0" y="388.0" text-anchor="middle" font-family="Inter Tight, Arial, sans-serif" font-size="18" font-weight="650" fill="#8aa286">NAV epoch</text>
<rect x="660" y="321" width="220" height="74" rx="14" fill="#07140a" stroke="#7fee64" stroke-width="2.5"/>
<text x="770.0" y="356.0" text-anchor="middle" font-family="Inter Tight, Arial, sans-serif" font-size="28" font-weight="800" fill="#ddffdc">mint native</text>
<text x="770.0" y="388.0" text-anchor="middle" font-family="Inter Tight, Arial, sans-serif" font-size="18" font-weight="650" fill="#8aa286">NAVCoin</text>
<rect x="1000" y="321" width="220" height="74" rx="14" fill="#151006" stroke="#ffd75e" stroke-width="2.5"/>
<text x="1110.0" y="356.0" text-anchor="middle" font-family="Inter Tight, Arial, sans-serif" font-size="28" font-weight="800" fill="#ddffdc">lock / debit</text>
<text x="1110.0" y="388.0" text-anchor="middle" font-family="Inter Tight, Arial, sans-serif" font-size="18" font-weight="650" fill="#8aa286">bridge state</text>
<line x1="540" y1="358" x2="660" y2="358" stroke="#7fee64" stroke-width="3" marker-end="url(#arrow-mint)"/>
<line x1="880" y1="358" x2="1000" y2="358" stroke="#ffd75e" stroke-width="3" marker-end="url(#arrow-amber)"/>
<path d="M560 250 C570 278 570 298 425 321" fill="none" stroke="#7fee64" stroke-width="3" marker-end="url(#arrow-mint)"/>
<rect x="585" y="476" width="220" height="74" rx="14" fill="#061018" stroke="#22c7ff" stroke-width="2.5"/>
<text x="695.0" y="511.0" text-anchor="middle" font-family="Inter Tight, Arial, sans-serif" font-size="28" font-weight="800" fill="#ddffdc">verify</text>
<text x="695.0" y="543.0" text-anchor="middle" font-family="Inter Tight, Arial, sans-serif" font-size="18" font-weight="650" fill="#8aa286">PFTL receipt</text>
<rect x="930" y="476" width="220" height="74" rx="14" fill="#061018" stroke="#22c7ff" stroke-width="2.5"/>
<text x="1040.0" y="511.0" text-anchor="middle" font-family="Inter Tight, Arial, sans-serif" font-size="28" font-weight="800" fill="#ddffdc">mint wNAV</text>
<text x="1040.0" y="543.0" text-anchor="middle" font-family="Inter Tight, Arial, sans-serif" font-size="18" font-weight="650" fill="#8aa286">ERC-20</text>
<rect x="1270" y="476" width="190" height="74" rx="14" fill="#061018" stroke="#22c7ff" stroke-width="2.5"/>
<text x="1365.0" y="511.0" text-anchor="middle" font-family="Inter Tight, Arial, sans-serif" font-size="28" font-weight="800" fill="#ddffdc">USDC pool</text>
<text x="1365.0" y="543.0" text-anchor="middle" font-family="Inter Tight, Arial, sans-serif" font-size="18" font-weight="650" fill="#8aa286">liquidity</text>
<line x1="805" y1="513" x2="930" y2="513" stroke="#22c7ff" stroke-width="3" marker-end="url(#arrow-cyan)"/>
<line x1="1150" y1="513" x2="1270" y2="513" stroke="#22c7ff" stroke-width="3" marker-end="url(#arrow-cyan)"/>
<path d="M1110 395 C1090 430 820 435 700 476" fill="none" stroke="#22c7ff" stroke-width="3" marker-end="url(#arrow-cyan)"/>
<rect x="255" y="631" width="210" height="74" rx="14" fill="#120b1d" stroke="#b17aff" stroke-width="2.5"/>
<text x="360.0" y="666.0" text-anchor="middle" font-family="Inter Tight, Arial, sans-serif" font-size="28" font-weight="800" fill="#ddffdc">shield</text>
<text x="360.0" y="698.0" text-anchor="middle" font-family="Inter Tight, Arial, sans-serif" font-size="18" font-weight="650" fill="#8aa286">private note</text>
<rect x="565" y="631" width="220" height="74" rx="14" fill="#120b1d" stroke="#b17aff" stroke-width="2.5"/>
<text x="675.0" y="666.0" text-anchor="middle" font-family="Inter Tight, Arial, sans-serif" font-size="28" font-weight="800" fill="#ddffdc">swap</text>
<text x="675.0" y="698.0" text-anchor="middle" font-family="Inter Tight, Arial, sans-serif" font-size="18" font-weight="650" fill="#8aa286">pfUSDC -&gt; NAV</text>
<rect x="890" y="631" width="220" height="74" rx="14" fill="#120b1d" stroke="#b17aff" stroke-width="2.5"/>
<text x="1000.0" y="666.0" text-anchor="middle" font-family="Inter Tight, Arial, sans-serif" font-size="28" font-weight="800" fill="#ddffdc">egress</text>
<text x="1000.0" y="698.0" text-anchor="middle" font-family="Inter Tight, Arial, sans-serif" font-size="18" font-weight="650" fill="#8aa286">public exit</text>
<rect x="1215" y="631" width="220" height="74" rx="14" fill="#151006" stroke="#ffd75e" stroke-width="2.5"/>
<text x="1325.0" y="666.0" text-anchor="middle" font-family="Inter Tight, Arial, sans-serif" font-size="28" font-weight="800" fill="#ddffdc">redeem</text>
<text x="1325.0" y="698.0" text-anchor="middle" font-family="Inter Tight, Arial, sans-serif" font-size="18" font-weight="650" fill="#8aa286">withdraw</text>
<line x1="465" y1="668" x2="565" y2="668" stroke="#b17aff" stroke-width="3" marker-end="url(#arrow-purple)"/>
<line x1="785" y1="668" x2="890" y2="668" stroke="#b17aff" stroke-width="3" marker-end="url(#arrow-purple)"/>
<line x1="1110" y1="668" x2="1215" y2="668" stroke="#ffd75e" stroke-width="3" marker-end="url(#arrow-amber)"/>
<path d="M1365 550 C1120 590 760 595 360 631" fill="none" stroke="#b17aff" stroke-width="3" marker-end="url(#arrow-purple)"/>
<text x="800" y="805" text-anchor="middle" font-family="Inter Tight, Arial, sans-serif" font-size="32" font-weight="800" fill="#ddffdc">Canonical means every venue or privacy action points back to PFTL proof state.</text>
</svg>
